<?xml version="1.0" encoding="UTF-8"?>
<!DOCTYPE svg PUBLIC "-//W3C//DTD SVG 1.1//EN" "http://www.w3.org/Graphics/SVG/1.1/DTD/svg11.dtd">
<svg xmlns="http://www.w3.org/2000/svg" version="1.1" width="1918px" height="879px" style="shape-rendering:geometricPrecision; text-rendering:geometricPrecision; image-rendering:optimizeQuality; fill-rule:evenodd; clip-rule:evenodd" xmlns:xlink="http://www.w3.org/1999/xlink">
<g><path style="opacity:1" fill="#fefefe" d="M -0.5,-0.5 C 638.833,-0.5 1278.17,-0.5 1917.5,-0.5C 1917.5,292.5 1917.5,585.5 1917.5,878.5C 1278.17,878.5 638.833,878.5 -0.5,878.5C -0.5,585.5 -0.5,292.5 -0.5,-0.5 Z"/></g>
<g><path style="opacity:1" fill="#1b1b1b" d="M 1360.5,90.5 C 1365.5,91.1667 1370.5,91.8333 1375.5,92.5C 1372.83,92.5 1370.17,92.5 1367.5,92.5C 1367.5,95.5 1367.5,98.5 1367.5,101.5C 1400.17,101.667 1432.84,101.5 1465.5,101C 1466.71,98.3135 1467.38,95.4802 1467.5,92.5C 1472.31,91.5128 1477.31,91.1795 1482.5,91.5C 1485.2,91.8449 1487.2,93.1782 1488.5,95.5C 1487.96,95.56 1487.62,95.8933 1487.5,96.5C 1488.01,98.2251 1488.68,99.8917 1489.5,101.5C 1489.6,99.7855 1489.93,98.1188 1490.5,96.5C 1491.49,156.125 1491.83,215.792 1491.5,275.5C 1512.86,278.671 1534.19,282.171 1555.5,286C 1561.69,288.193 1565.86,292.359 1568,298.5C 1568.67,315.833 1568.67,333.167 1568,350.5C 1567.15,351.571 1566.31,352.571 1565.5,353.5C 1564.27,358.13 1561.27,360.964 1556.5,362C 1535.52,365.718 1514.52,369.218 1493.5,372.5C 1492.17,413.495 1491.5,454.828 1491.5,496.5C 1491.5,538.001 1491.83,579.335 1492.5,620.5C 1513.89,622.539 1535.22,625.039 1556.5,628C 1561.14,630.641 1564.31,634.475 1566,639.5C 1566.67,675.5 1566.67,711.5 1566,747.5C 1563.74,752.757 1559.91,756.257 1554.5,758C 1535.2,760.496 1515.87,762.662 1496.5,764.5C 1494.83,764.5 1493.17,764.5 1491.5,764.5C 1491.5,792.5 1491.5,820.5 1491.5,848.5C 1491.5,849.167 1491.5,849.833 1491.5,850.5C 1491.17,850.5 1490.83,850.5 1490.5,850.5C 1490.63,849.624 1490.3,848.957 1489.5,848.5C 1488.13,851.87 1485.8,854.203 1482.5,855.5C 1481.38,856.348 1481.38,857.348 1482.5,858.5C 1133.17,858.5 783.833,858.5 434.5,858.5C 435.651,855.947 434.651,854.614 431.5,854.5C 429.691,852.901 428.358,850.901 427.5,848.5C 427.167,848.833 426.833,849.167 426.5,849.5C 427.456,851.075 428.123,852.742 428.5,854.5C 427.21,853.942 426.377,852.942 426,851.5C 425.5,819.835 425.333,788.168 425.5,756.5C 405.461,753.66 385.461,750.494 365.5,747C 356.889,745.724 351.389,740.89 349,732.5C 348.333,715.833 348.333,699.167 349,682.5C 351.079,676.753 354.912,672.586 360.5,670C 381.839,666.452 403.172,662.952 424.5,659.5C 425.167,620.835 425.5,582.001 425.5,543C 425.5,503.828 424.833,464.994 423.5,426.5C 404.809,424.998 386.142,423.164 367.5,421C 358.691,420.368 353.191,415.868 351,407.5C 350.333,371.833 350.333,336.167 351,300.5C 353.691,294.471 358.191,290.638 364.5,289C 384.853,286.914 405.186,284.747 425.5,282.5C 425.333,220.832 425.5,159.166 426,97.5C 426.383,96.944 426.883,96.6107 427.5,96.5C 428.869,92.8132 431.535,91.1465 435.5,91.5C 440.363,91.1805 445.03,91.5139 449.5,92.5C 449.993,94.8056 450.326,97.139 450.5,99.5C 514.163,100.833 578.163,101.5 642.5,101.5C 706.668,101.5 770.668,101.167 834.5,100.5C 834.025,97.6874 835.025,95.6874 837.5,94.5C 837.461,95.5832 837.127,96.5832 836.5,97.5C 838.396,98.4656 840.396,98.7989 842.5,98.5C 842.799,96.396 842.466,94.396 841.5,92.5C 840.583,93.1272 839.583,93.4606 838.5,93.5C 838.97,92.3065 839.97,91.6399 841.5,91.5C 842.726,91.5195 843.726,91.8529 844.5,92.5C 844.5,94.5 844.5,96.5 844.5,98.5C 892.5,98.5 940.5,98.5 988.5,98.5C 988.5,96.5 988.5,94.5 988.5,92.5C 989.919,91.5489 991.585,91.2155 993.5,91.5C 993.5,92.1667 993.5,92.8333 993.5,93.5C 992.85,93.1961 992.183,92.8627 991.5,92.5C 990.534,94.396 990.201,96.396 990.5,98.5C 992.735,98.7947 994.735,98.4614 996.5,97.5C 996.833,97.5 997.167,97.5 997.5,97.5C 1012.99,98.4963 1028.66,98.8296 1044.5,98.5C 1044.79,96.2646 1044.46,94.2646 1043.5,92.5C 1043.5,92.1667 1043.5,91.8333 1043.5,91.5C 1048.03,91.8182 1052.37,91.4849 1056.5,90.5C 1056.17,66.9251 1056.51,43.4251 1057.5,20C 1158.17,19.3333 1258.83,19.3333 1359.5,20C 1360.49,43.4251 1360.83,66.9251 1360.5,90.5 Z"/></g>
<g><path style="opacity:1" fill="#f8f8f8" d="M 1057.5,21.5 C 1060.5,21.5 1063.5,21.5 1066.5,21.5C 1066.5,44.8333 1066.5,68.1667 1066.5,91.5C 1063.5,91.5 1060.5,91.5 1057.5,91.5C 1057.5,68.1667 1057.5,44.8333 1057.5,21.5 Z"/></g>
<g><path style="opacity:1" fill="#fefffe" d="M 1068.5,21.5 C 1161.83,21.5 1255.17,21.5 1348.5,21.5C 1348.5,44.8333 1348.5,68.1667 1348.5,91.5C 1255.17,91.5 1161.83,91.5 1068.5,91.5C 1068.5,68.1667 1068.5,44.8333 1068.5,21.5 Z"/></g>
<g><path style="opacity:1" fill="#f1f1f1" d="M 1350.5,21.5 C 1353.5,21.5 1356.5,21.5 1359.5,21.5C 1359.5,44.8333 1359.5,68.1667 1359.5,91.5C 1356.5,91.5 1353.5,91.5 1350.5,91.5C 1350.5,68.1667 1350.5,44.8333 1350.5,21.5 Z"/></g>
<g><path style="opacity:1" fill="#1a1a1a" d="M 777.5,78.5 C 777.666,82.8461 777.499,87.1794 777,91.5C 776.827,85.9842 776.327,80.6509 775.5,75.5C 774.749,72.2467 772.749,70.08 769.5,69C 667.833,68.3333 566.167,68.3333 464.5,69C 461.921,70.0757 460.254,71.909 459.5,74.5C 458.511,79.9753 458.178,85.642 458.5,91.5C 457.508,91.6716 456.842,91.3382 456.5,90.5C 456.334,85.1563 456.501,79.8229 457,74.5C 458.916,70.9151 461.749,68.4151 465.5,67C 567.167,66.3333 668.833,66.3333 770.5,67C 775.523,69.2151 777.856,73.0484 777.5,78.5 Z"/></g>
<g><path style="opacity:1" fill="#fcfcfc" d="M 775.5,75.5 C 775.5,80.5 775.5,85.5 775.5,90.5C 670.167,90.5 564.833,90.5 459.5,90.5C 459.5,85.1667 459.5,79.8333 459.5,74.5C 460.254,71.909 461.921,70.0757 464.5,69C 566.167,68.3333 667.833,68.3333 769.5,69C 772.749,70.08 774.749,72.2467 775.5,75.5 Z"/></g>
<g><path style="opacity:1" fill="#515151" d="M 775.5,75.5 C 776.327,80.6509 776.827,85.9842 777,91.5C 777.499,87.1794 777.666,82.8461 777.5,78.5C 778.483,82.2984 778.817,86.2984 778.5,90.5C 871.167,90.5 963.833,90.5 1056.5,90.5C 1052.37,91.4849 1048.03,91.8182 1043.5,91.5C 1026.83,91.5 1010.17,91.5 993.5,91.5C 991.585,91.2155 989.919,91.5489 988.5,92.5C 940.5,92.5 892.5,92.5 844.5,92.5C 843.726,91.8529 842.726,91.5195 841.5,91.5C 839.97,91.6399 838.97,92.3065 838.5,93.5C 838.5,94.1667 838.167,94.5 837.5,94.5C 708.504,92.5017 579.171,91.8351 449.5,92.5C 445.03,91.5139 440.363,91.1805 435.5,91.5C 442.313,90.5088 449.313,90.1755 456.5,90.5C 456.842,91.3382 457.508,91.6716 458.5,91.5C 564.335,91.8328 670.001,91.4995 775.5,90.5C 775.5,85.5 775.5,80.5 775.5,75.5 Z"/></g>
<g><path style="opacity:1" fill="#818181" d="M 459.5,74.5 C 459.5,79.8333 459.5,85.1667 459.5,90.5C 564.833,90.5 670.167,90.5 775.5,90.5C 670.001,91.4995 564.335,91.8328 458.5,91.5C 458.178,85.642 458.511,79.9753 459.5,74.5 Z"/></g>
<g><path style="opacity:1" fill="#404040" d="M 993.5,91.5 C 1010.17,91.5 1026.83,91.5 1043.5,91.5C 1043.5,91.8333 1043.5,92.1667 1043.5,92.5C 1027.16,92.3334 1010.83,92.5001 994.5,93C 995.883,94.2708 996.883,95.7708 997.5,97.5C 997.167,97.5 996.833,97.5 996.5,97.5C 995.512,96.205 994.512,94.8717 993.5,93.5C 993.5,92.8333 993.5,92.1667 993.5,91.5 Z"/></g>
<g><path style="opacity:1" fill="#565656" d="M 1360.5,90.5 C 1401.34,90.1681 1442,90.5014 1482.5,91.5C 1477.31,91.1795 1472.31,91.5128 1467.5,92.5C 1436.83,92.5 1406.17,92.5 1375.5,92.5C 1370.5,91.8333 1365.5,91.1667 1360.5,90.5 Z"/></g>
<g><path style="opacity:1" fill="#f6f6f6" d="M 439.5,100.5 C 435.988,101.055 432.988,100.388 430.5,98.5C 430.738,95.8517 432.072,94.0183 434.5,93C 437.167,92.3333 439.833,92.3333 442.5,93C 440.307,95.0253 439.307,97.5253 439.5,100.5 Z"/></g>
<g><path style="opacity:1" fill="#fefefe" d="M 449.5,92.5 C 579.171,91.8351 708.504,92.5017 837.5,94.5C 835.025,95.6874 834.025,97.6874 834.5,100.5C 706.43,100.831 578.43,100.498 450.5,99.5C 450.326,97.139 449.993,94.8056 449.5,92.5 Z"/></g>
<g><path style="opacity:1" fill="#fefefe" d="M 844.5,92.5 C 892.5,92.5 940.5,92.5 988.5,92.5C 988.5,94.5 988.5,96.5 988.5,98.5C 940.5,98.5 892.5,98.5 844.5,98.5C 844.5,96.5 844.5,94.5 844.5,92.5 Z"/></g>
<g><path style="opacity:1" fill="#f4f4f4" d="M 993.5,93.5 C 994.512,94.8717 995.512,96.205 996.5,97.5C 994.735,98.4614 992.735,98.7947 990.5,98.5C 990.201,96.396 990.534,94.396 991.5,92.5C 992.183,92.8627 992.85,93.1961 993.5,93.5 Z"/></g>
<g><path style="opacity:1" fill="#fbfbfb" d="M 1043.5,92.5 C 1044.46,94.2646 1044.79,96.2646 1044.5,98.5C 1028.66,98.8296 1012.99,98.4963 997.5,97.5C 996.883,95.7708 995.883,94.2708 994.5,93C 1010.83,92.5001 1027.16,92.3334 1043.5,92.5 Z"/></g>
<g><path style="opacity:1" fill="#f1f1f1" d="M 1375.5,92.5 C 1406.17,92.5 1436.83,92.5 1467.5,92.5C 1467.38,95.4802 1466.71,98.3135 1465.5,101C 1432.84,101.5 1400.17,101.667 1367.5,101.5C 1367.5,98.5 1367.5,95.5 1367.5,92.5C 1370.17,92.5 1372.83,92.5 1375.5,92.5 Z"/></g>
<g><path style="opacity:1" fill="#e2e2e2" d="M 1473.5,93.5 C 1473.83,94.5 1474.5,95.1667 1475.5,95.5C 1475.67,96.8221 1475.34,97.9887 1474.5,99C 1472.11,99.3034 1469.94,100.137 1468,101.5C 1467.85,98.7682 1468.35,96.1015 1469.5,93.5C 1470.81,92.3744 1472.14,92.3744 1473.5,93.5 Z"/></g>
<g><path style="opacity:1" fill="#f6f6f6" d="M 1473.5,93.5 C 1477.07,92.2262 1480.74,92.3929 1484.5,94C 1485.58,95.3297 1486.25,96.8297 1486.5,98.5C 1484.01,100.388 1481.01,101.055 1477.5,100.5C 1477.88,98.302 1477.21,96.6354 1475.5,95.5C 1475.5,94.1667 1474.83,93.5 1473.5,93.5 Z"/></g>
<g><path style="opacity:1" fill="#efefef" d="M 445.5,92.5 C 446.497,92.4701 447.164,92.9701 447.5,94C 448.017,96.077 448.684,98.077 449.5,100C 446.918,99.7446 444.252,99.578 441.5,99.5C 441.571,96.3477 442.905,94.0144 445.5,92.5 Z"/></g>
<g><path style="opacity:1" fill="#ededed" d="M 837.5,94.5 C 838.167,94.5 838.5,94.1667 838.5,93.5C 839.583,93.4606 840.583,93.1272 841.5,92.5C 842.466,94.396 842.799,96.396 842.5,98.5C 840.396,98.7989 838.396,98.4656 836.5,97.5C 837.127,96.5832 837.461,95.5832 837.5,94.5 Z"/></g>
<g><path style="opacity:1" fill="#494949" d="M 1047.5,93.5 C 1047.5,120.833 1047.5,148.167 1047.5,175.5C 1046.66,175.842 1046.33,176.508 1046.5,177.5C 1046.17,177.5 1045.83,177.5 1045.5,177.5C 1045.5,164.5 1045.5,151.5 1045.5,138.5C 1036.17,138.5 1026.83,138.5 1017.5,138.5C 1027.01,137.833 1036.67,137.167 1046.5,136.5C 1046.38,135.893 1046.04,135.56 1045.5,135.5C 1045.77,133.901 1045.43,132.568 1044.5,131.5C 1044.78,130.711 1045.28,130.044 1046,129.5C 1046.17,117.326 1046.67,105.326 1047.5,93.5 Z"/></g>
<g><path style="opacity:1" fill="#fefffe" d="M 1047.5,93.5 C 1051.17,93.5 1054.83,93.5 1058.5,93.5C 1058.5,130.833 1058.5,168.167 1058.5,205.5C 1054.83,205.5 1051.17,205.5 1047.5,205.5C 1047.5,195.5 1047.5,185.5 1047.5,175.5C 1047.5,148.167 1047.5,120.833 1047.5,93.5 Z"/></g>
<g><path style="opacity:1" fill="#fefefe" d="M 1060.5,93.5 C 1157.5,93.5 1254.5,93.5 1351.5,93.5C 1351.5,130.833 1351.5,168.167 1351.5,205.5C 1254.5,205.5 1157.5,205.5 1060.5,205.5C 1060.5,168.167 1060.5,130.833 1060.5,93.5 Z"/></g>
<g><path style="opacity:1" fill="#fcfcfc" d="M 1353.5,93.5 C 1357.17,93.5 1360.83,93.5 1364.5,93.5C 1364.5,130.833 1364.5,168.167 1364.5,205.5C 1360.83,205.5 1357.17,205.5 1353.5,205.5C 1353.5,168.167 1353.5,130.833 1353.5,93.5 Z"/></g>
<g><path style="opacity:1" fill="#222222" d="M 1473.5,93.5 C 1474.83,93.5 1475.5,94.1667 1475.5,95.5C 1474.5,95.1667 1473.83,94.5 1473.5,93.5 Z"/></g>
<g><path style="opacity:1" fill="#878787" d="M 427.5,96.5 C 428.239,96.369 428.906,96.5357 429.5,97C 426.843,103.167 426.176,103.001 427.5,96.5 Z"/></g>
<g><path style="opacity:1" fill="#7e7f7e" d="M 430.5,98.5 C 432.988,100.388 435.988,101.055 439.5,100.5C 436.375,101.479 433.042,101.813 429.5,101.5C 429.263,100.209 429.596,99.209 430.5,98.5 Z"/></g>
<g><path style="opacity:1" fill="#666666" d="M 1488.5,95.5 C 1489.49,95.3284 1490.16,95.6618 1490.5,96.5C 1489.93,98.1188 1489.6,99.7855 1489.5,101.5C 1488.68,99.8917 1488.01,98.2251 1487.5,96.5C 1487.62,95.8933 1487.96,95.56 1488.5,95.5 Z"/></g>
<g><path style="opacity:1" fill="#7e7e7e" d="M 450.5,99.5 C 578.43,100.498 706.43,100.831 834.5,100.5C 770.668,101.167 706.668,101.5 642.5,101.5C 578.163,101.5 514.163,100.833 450.5,99.5 Z"/></g>
<g><path style="opacity:1" fill="#f5f5f5" d="M 836.5,100.5 C 838.5,100.5 840.5,100.5 842.5,100.5C 842.5,142.5 842.5,184.5 842.5,226.5C 840.5,226.5 838.5,226.5 836.5,226.5C 836.5,184.5 836.5,142.5 836.5,100.5 Z"/></g>
<g><path style="opacity:1" fill="#fefefe" d="M 844.5,100.5 C 892.5,100.5 940.5,100.5 988.5,100.5C 988.5,142.5 988.5,184.5 988.5,226.5C 940.5,226.5 892.5,226.5 844.5,226.5C 844.5,184.5 844.5,142.5 844.5,100.5 Z"/></g>
<g><path style="opacity:1" fill="#fefffe" d="M 990.5,100.5 C 992.5,100.5 994.5,100.5 996.5,100.5C 996.5,142.5 996.5,184.5 996.5,226.5C 994.5,226.5 992.5,226.5 990.5,226.5C 990.5,184.5 990.5,142.5 990.5,100.5 Z"/></g>
<g><path style="opacity:1" fill="#fcfcfc" d="M 1003.5,146.5 C 1003.5,146.833 1003.5,147.167 1003.5,147.5C 1003.33,155.84 1003.5,164.173 1004,172.5C 1004.38,173.056 1004.88,173.389 1005.5,173.5C 1006.25,176.091 1007.92,177.924 1010.5,179C 1019.5,179.333 1028.5,179.667 1037.5,180C 1039.62,181.122 1041.46,182.622 1043,184.5C 1044.28,194.401 1044.95,204.401 1045,214.5C 1046.25,217.381 1048.42,219.214 1051.5,220C 1154.83,220.667 1258.17,220.667 1361.5,220C 1363.71,218.127 1365.54,215.96 1367,213.5C 1367.05,203.401 1367.72,193.401 1369,183.5C 1369.9,182.299 1371.07,181.465 1372.5,181C 1382.23,180.892 1391.89,180.225 1401.5,179C 1404.73,177.437 1406.9,174.937 1408,171.5C 1408.92,161.426 1408.59,151.426 1407,141.5C 1405.13,139.291 1402.96,137.458 1400.5,136C 1391.17,135.667 1381.83,135.333 1372.5,135C 1370.62,133.457 1369.12,131.624 1368,129.5C 1367.5,120.506 1367.33,111.506 1367.5,102.5C 1400.17,102.5 1432.83,102.5 1465.5,102.5C 1465.5,126.5 1465.5,150.5 1465.5,174.5C 1451.59,174.177 1437.75,174.51 1424,175.5C 1423.33,371.833 1423.33,568.167 1424,764.5C 1437.75,765.49 1451.59,765.823 1465.5,765.5C 1465.5,787.5 1465.5,809.5 1465.5,831.5C 1444.17,831.5 1422.83,831.5 1401.5,831.5C 1401.83,823.648 1401.49,815.982 1400.5,808.5C 1400.17,808.5 1399.83,808.5 1399.5,808.5C 1345.17,807.833 1290.83,807.167 1236.5,806.5C 1237.66,797.676 1237.82,788.676 1237,779.5C 1235.58,778.54 1234.08,777.707 1232.5,777C 1228.18,776.501 1223.85,776.334 1219.5,776.5C 1219.5,613.167 1219.5,449.833 1219.5,286.5C 1233.54,289.786 1239.54,284.453 1237.5,270.5C 1237.33,266.5 1237.17,262.5 1237,258.5C 1236.53,257.069 1235.7,255.903 1234.5,255C 1226.5,254.333 1218.5,254.333 1210.5,255C 1209.67,255.833 1208.83,256.667 1208,257.5C 1207.33,440.167 1207.33,622.833 1208,805.5C 1208.72,806.044 1209.22,806.711 1209.5,807.5C 1042.16,808.165 875.163,807.499 708.5,805.5C 709.498,579.54 709.831,353.54 709.5,127.5C 705.298,127.183 701.298,127.517 697.5,128.5C 696.501,169.997 696.168,211.663 696.5,253.5C 692.298,253.183 688.298,253.517 684.5,254.5C 682.089,254.137 680.589,255.137 680,257.5C 679.177,266.01 679.343,274.344 680.5,282.5C 680.511,284.017 681.177,285.184 682.5,286C 687.155,286.499 691.821,286.666 696.5,286.5C 696.5,449.833 696.5,613.167 696.5,776.5C 691.968,776.182 687.634,776.515 683.5,777.5C 681.376,778.031 679.876,779.365 679,781.5C 678.333,788.833 678.333,796.167 679,803.5C 679.309,804.766 679.809,805.933 680.5,807C 626.167,807.333 571.833,807.667 517.5,808C 516.944,808.383 516.611,808.883 516.5,809.5C 515.508,816.648 515.175,823.981 515.5,831.5C 494.167,831.5 472.833,831.5 451.5,831.5C 451.5,809.5 451.5,787.5 451.5,765.5C 465.412,765.823 479.246,765.49 493,764.5C 493.667,568.167 493.667,371.833 493,175.5C 479.246,174.51 465.412,174.177 451.5,174.5C 451.5,150.833 451.5,127.167 451.5,103.5C 579.167,103.5 706.833,103.5 834.5,103.5C 834.5,152.167 834.5,200.833 834.5,249.5C 834.5,249.833 834.5,250.167 834.5,250.5C 834.787,254.155 836.453,256.988 839.5,259C 847.5,259.333 855.5,259.667 863.5,260C 862.334,441.097 862.167,622.264 863,803.5C 866.409,804.622 869.909,804.789 873.5,804C 874.056,803.617 874.389,803.117 874.5,802.5C 875.5,622.001 875.833,441.334 875.5,260.5C 885.5,260.5 895.5,260.5 905.5,260.5C 905.167,441.334 905.5,622.001 906.5,802.5C 906.611,803.117 906.944,803.617 907.5,804C 910.5,804.667 913.5,804.667 916.5,804C 917.056,803.617 917.389,803.117 917.5,802.5C 918.5,622.001 918.833,441.334 918.5,260.5C 928.5,260.5 938.5,260.5 948.5,260.5C 948.167,441.334 948.5,622.001 949.5,802.5C 949.611,803.117 949.944,803.617 950.5,804C 953.5,804.667 956.5,804.667 959.5,804C 960.056,803.617 960.389,803.117 960.5,802.5C 961.5,622.001 961.833,441.334 961.5,260.5C 971.5,260.5 981.5,260.5 991.5,260.5C 991.167,441.334 991.5,622.001 992.5,802.5C 992.611,803.117 992.944,803.617 993.5,804C 997.317,805.023 1000.82,804.523 1004,802.5C 1004.83,621.333 1004.67,440.333 1003.5,259.5C 1000.2,259.11 997.203,258.11 994.5,256.5C 995.75,256.423 996.583,255.756 997,254.5C 997.5,203.168 997.667,151.834 997.5,100.5C 1013.17,100.5 1028.83,100.5 1044.5,100.5C 1044.95,110.938 1044.45,121.271 1043,131.5C 1041.68,133.487 1039.85,134.654 1037.5,135C 1028.83,135.333 1020.17,135.667 1011.5,136C 1006.52,137.802 1003.86,141.302 1003.5,146.5 Z"/></g>
<g><path style="opacity:1" fill="#787878" d="M 1486.5,98.5 C 1487.4,99.209 1487.74,100.209 1487.5,101.5C 1483.96,101.813 1480.62,101.479 1477.5,100.5C 1481.01,101.055 1484.01,100.388 1486.5,98.5 Z"/></g>
<g><path style="opacity:1" fill="#b5b5b5" d="M 443.5,101.5 C 441.51,125.143 440.843,149.143 441.5,173.5C 444.167,173.5 446.833,173.5 449.5,173.5C 446.713,174.477 443.713,174.81 440.5,174.5C 440.5,149.833 440.5,125.167 440.5,100.5C 441.791,100.263 442.791,100.596 443.5,101.5 Z"/></g>
<g><path style="opacity:1" fill="#fefefe" d="M 443.5,101.5 C 445.435,102.15 447.435,102.483 449.5,102.5C 449.5,126.167 449.5,149.833 449.5,173.5C 446.833,173.5 444.167,173.5 441.5,173.5C 440.843,149.143 441.51,125.143 443.5,101.5 Z"/></g>
<g><path style="opacity:1" fill="#fefefe" d="M 1473.5,101.5 C 1475.49,125.143 1476.16,149.143 1475.5,173.5C 1472.83,173.5 1470.17,173.5 1467.5,173.5C 1467.5,149.833 1467.5,126.167 1467.5,102.5C 1469.56,102.483 1471.56,102.15 1473.5,101.5 Z"/></g>
<g><path style="opacity:1" fill="#b5b5b5" d="M 1473.5,101.5 C 1474.21,100.596 1475.21,100.263 1476.5,100.5C 1476.5,125.167 1476.5,149.833 1476.5,174.5C 1473.29,174.81 1470.29,174.477 1467.5,173.5C 1470.17,173.5 1472.83,173.5 1475.5,173.5C 1476.16,149.143 1475.49,125.143 1473.5,101.5 Z"/></g>
<g><path style="opacity:1" fill="#7a7a7a" d="M 426.5,102.5 C 427.833,226.165 428.5,350.165 428.5,474.5C 428.167,598.5 427.833,722.5 427.5,846.5C 426.5,598.501 426.167,350.501 426.5,102.5 Z"/></g>
<g><path style="opacity:1" fill="#616161" d="M 836.5,100.5 C 836.5,142.5 836.5,184.5 836.5,226.5C 835.167,227.167 835.167,227.833 836.5,228.5C 837.075,230.411 838.075,232.078 839.5,233.5C 838.833,233.5 838.167,233.5 837.5,233.5C 837.44,232.957 837.107,232.624 836.5,232.5C 835.833,238.319 835.167,243.986 834.5,249.5C 834.5,200.833 834.5,152.167 834.5,103.5C 706.833,103.5 579.167,103.5 451.5,103.5C 579.876,103.163 708.209,102.163 836.5,100.5 Z"/></g>
<g><path style="opacity:1" fill="#bdbdbd" d="M 439.5,103.5 C 436.5,103.5 433.5,103.5 430.5,103.5C 430.5,352.167 430.5,600.833 430.5,849.5C 429.5,600.667 429.167,351.667 429.5,102.5C 433.042,102.187 436.375,102.521 439.5,103.5 Z"/></g>
<g><path style="opacity:1" fill="#fefefe" d="M 439.5,103.5 C 439.5,173.167 439.5,242.833 439.5,312.5C 437.585,312.216 435.919,312.549 434.5,313.5C 430.533,316.201 430.533,319.034 434.5,322C 436.134,322.494 437.801,322.66 439.5,322.5C 439.5,369.833 439.5,417.167 439.5,464.5C 437.585,464.216 435.919,464.549 434.5,465.5C 431.02,467.474 430.52,470.141 433,473.5C 435.041,474.423 437.208,474.756 439.5,474.5C 439.5,522.167 439.5,569.833 439.5,617.5C 437.473,617.338 435.473,617.505 433.5,618C 432.075,619.714 432.408,621.047 434.5,622C 432.408,622.953 432.075,624.286 433.5,626C 435.473,626.495 437.473,626.662 439.5,626.5C 439.5,696.5 439.5,766.5 439.5,836.5C 440.276,840.443 442.609,842.943 446.5,844C 787.833,844.667 1129.17,844.667 1470.5,844C 1472.32,843.8 1473.65,842.966 1474.5,841.5C 1476.73,840.599 1477.73,838.933 1477.5,836.5C 1477.5,766.5 1477.5,696.5 1477.5,626.5C 1484.61,627.096 1486.61,624.263 1483.5,618C 1481.53,617.505 1479.53,617.338 1477.5,617.5C 1477.5,569.833 1477.5,522.167 1477.5,474.5C 1482.08,475.657 1484.75,473.99 1485.5,469.5C 1485.25,467.583 1484.25,466.249 1482.5,465.5C 1481.08,464.549 1479.41,464.216 1477.5,464.5C 1477.5,417.167 1477.5,369.833 1477.5,322.5C 1480.23,322.829 1482.56,322.163 1484.5,320.5C 1485.83,318.833 1485.83,317.167 1484.5,315.5C 1484.17,314.5 1483.5,313.833 1482.5,313.5C 1481.08,312.549 1479.41,312.216 1477.5,312.5C 1477.5,242.833 1477.5,173.167 1477.5,103.5C 1480.5,103.5 1483.5,103.5 1486.5,103.5C 1486.5,352.167 1486.5,600.833 1486.5,849.5C 1486.49,851.017 1485.82,852.184 1484.5,853C 1133.83,853.667 783.167,853.667 432.5,853C 431.177,852.184 430.511,851.017 430.5,849.5C 430.5,600.833 430.5,352.167 430.5,103.5C 433.5,103.5 436.5,103.5 439.5,103.5 Z"/></g>
<g><path style="opacity:1" fill="#bebebe" d="M 1477.5,103.5 C 1480.62,102.521 1483.96,102.187 1487.5,102.5C 1487.83,351.667 1487.5,600.667 1486.5,849.5C 1486.5,600.833 1486.5,352.167 1486.5,103.5C 1483.5,103.5 1480.5,103.5 1477.5,103.5 Z"/></g>
<g><path style="opacity:1" fill="#0d0d0d" d="M 525.5,127.5 C 529.5,127.5 533.5,127.5 537.5,127.5C 537.667,352.5 537.5,577.5 537,802.5C 533.27,803.46 529.437,803.793 525.5,803.5C 525.5,578.167 525.5,352.833 525.5,127.5 Z"/></g>
<g><path style="opacity:1" fill="#0d0d0d" d="M 568.5,127.5 C 572.5,127.5 576.5,127.5 580.5,127.5C 580.667,352.5 580.5,577.5 580,802.5C 576.27,803.46 572.437,803.793 568.5,803.5C 568.5,578.167 568.5,352.833 568.5,127.5 Z"/></g>
<g><path style="opacity:1" fill="#0d0d0d" d="M 611.5,127.5 C 615.5,127.5 619.5,127.5 623.5,127.5C 623.667,352.5 623.5,577.5 623,802.5C 619.27,803.46 615.437,803.793 611.5,803.5C 611.5,578.167 611.5,352.833 611.5,127.5 Z"/></g>
<g><path style="opacity:1" fill="#0d0d0d" d="M 654.5,127.5 C 658.5,127.5 662.5,127.5 666.5,127.5C 666.667,352.5 666.5,577.5 666,802.5C 662.27,803.46 658.437,803.793 654.5,803.5C 654.5,578.167 654.5,352.833 654.5,127.5 Z"/></g>
<g><path style="opacity:1" fill="#0d0d0d" d="M 740.5,127.5 C 744.5,127.5 748.5,127.5 752.5,127.5C 752.667,352.5 752.5,577.5 752,802.5C 748.27,803.46 744.437,803.793 740.5,803.5C 740.5,578.167 740.5,352.833 740.5,127.5 Z"/></g>
<g><path style="opacity:1" fill="#0d0d0d" d="M 783.5,127.5 C 787.5,127.5 791.5,127.5 795.5,127.5C 795.667,352.5 795.5,577.5 795,802.5C 791.27,803.46 787.437,803.793 783.5,803.5C 783.5,578.167 783.5,352.833 783.5,127.5 Z"/></g>
<g><path style="opacity:1" fill="#7e7e7e" d="M 697.5,128.5 C 697.5,170.5 697.5,212.5 697.5,254.5C 693.167,254.5 688.833,254.5 684.5,254.5C 688.298,253.517 692.298,253.183 696.5,253.5C 696.168,211.663 696.501,169.997 697.5,128.5 Z"/></g>
<g><path style="opacity:1" fill="#a8a8a8" d="M 699.5,128.5 C 699.5,131.167 699.5,133.833 699.5,136.5C 701.833,136.5 704.167,136.5 706.5,136.5C 706.5,133.833 706.5,131.167 706.5,128.5C 707.477,131.287 707.81,134.287 707.5,137.5C 704.5,137.5 701.5,137.5 698.5,137.5C 698.19,134.287 698.523,131.287 699.5,128.5 Z"/></g>
<g><path style="opacity:1" fill="#fefffe" d="M 699.5,128.5 C 701.833,128.5 704.167,128.5 706.5,128.5C 706.5,131.167 706.5,133.833 706.5,136.5C 704.167,136.5 701.833,136.5 699.5,136.5C 699.5,133.833 699.5,131.167 699.5,128.5 Z"/></g>
<g><path style="opacity:1" fill="#f1f1f1" d="M 528.5,129.5 C 530.167,129.5 531.833,129.5 533.5,129.5C 533.5,132.5 533.5,135.5 533.5,138.5C 531.833,138.5 530.167,138.5 528.5,138.5C 528.5,135.5 528.5,132.5 528.5,129.5 Z"/></g>
<g><path style="opacity:1" fill="#f1f1f1" d="M 571.5,129.5 C 573.167,129.5 574.833,129.5 576.5,129.5C 576.5,132.5 576.5,135.5 576.5,138.5C 574.833,138.5 573.167,138.5 571.5,138.5C 571.5,135.5 571.5,132.5 571.5,129.5 Z"/></g>
<g><path style="opacity:1" fill="#f1f1f1" d="M 614.5,129.5 C 616.167,129.5 617.833,129.5 619.5,129.5C 619.5,132.5 619.5,135.5 619.5,138.5C 617.833,138.5 616.167,138.5 614.5,138.5C 614.5,135.5 614.5,132.5 614.5,129.5 Z"/></g>
<g><path style="opacity:1" fill="#f1f1f1" d="M 657.5,129.5 C 659.167,129.5 660.833,129.5 662.5,129.5C 662.5,132.5 662.5,135.5 662.5,138.5C 660.833,138.5 659.167,138.5 657.5,138.5C 657.5,135.5 657.5,132.5 657.5,129.5 Z"/></g>
<g><path style="opacity:1" fill="#f1f1f1" d="M 743.5,129.5 C 745.167,129.5 746.833,129.5 748.5,129.5C 748.5,132.5 748.5,135.5 748.5,138.5C 746.833,138.5 745.167,138.5 743.5,138.5C 743.5,135.5 743.5,132.5 743.5,129.5 Z"/></g>
<g><path style="opacity:1" fill="#f1f1f1" d="M 786.5,129.5 C 788.167,129.5 789.833,129.5 791.5,129.5C 791.5,132.5 791.5,135.5 791.5,138.5C 789.833,138.5 788.167,138.5 786.5,138.5C 786.5,135.5 786.5,132.5 786.5,129.5 Z"/></g>
<g><path style="opacity:1" fill="#afafaf" d="M 1365.5,128.5 C 1366.51,131.33 1368.18,133.83 1370.5,136C 1368.87,136.494 1367.2,136.66 1365.5,136.5C 1365.5,133.833 1365.5,131.167 1365.5,128.5 Z"/></g>
<g><path style="opacity:1" fill="#d4d4d4" d="M 1044.5,131.5 C 1045.43,132.568 1045.77,133.901 1045.5,135.5C 1044.29,136.782 1042.96,136.782 1041.5,135.5C 1042.83,134.358 1043.83,133.024 1044.5,131.5 Z"/></g>
<g><path style="opacity:1" fill="#f8f8f8" d="M 1017.5,138.5 C 1026.83,138.5 1036.17,138.5 1045.5,138.5C 1045.5,151.5 1045.5,164.5 1045.5,177.5C 1034.83,177.667 1024.16,177.5 1013.5,177C 1011.71,176.215 1010.21,175.049 1009,173.5C 1007.38,163.6 1007.05,153.6 1008,143.5C 1010.25,140.125 1013.42,138.459 1017.5,138.5 Z"/></g>
<g><path style="opacity:1" fill="#a9a9a9" d="M 1396.5,138.5 C 1386.5,138.5 1376.5,138.5 1366.5,138.5C 1366.5,151.5 1366.5,164.5 1366.5,177.5C 1365.5,164.344 1365.17,151.01 1365.5,137.5C 1376.01,137.172 1386.35,137.506 1396.5,138.5 Z"/></g>
<g><path style="opacity:1" fill="#f9f9f9" d="M 1396.5,138.5 C 1399.64,138.799 1401.81,140.466 1403,143.5C 1403.67,153.5 1403.67,163.5 1403,173.5C 1401.68,175.487 1399.85,176.654 1397.5,177C 1387.17,177.5 1376.84,177.666 1366.5,177.5C 1366.5,164.5 1366.5,151.5 1366.5,138.5C 1376.5,138.5 1386.5,138.5 1396.5,138.5 Z"/></g>
<g><path style="opacity:1" fill="#404040" d="M 528.5,140.5 C 530.265,139.539 532.265,139.205 534.5,139.5C 534.833,356.667 534.5,573.667 533.5,790.5C 533.5,573.833 533.5,357.167 533.5,140.5C 531.833,140.5 530.167,140.5 528.5,140.5 Z"/></g>
<g><path style="opacity:1" fill="#404040" d="M 571.5,140.5 C 573.265,139.539 575.265,139.205 577.5,139.5C 577.833,356.667 577.5,573.667 576.5,790.5C 576.5,573.833 576.5,357.167 576.5,140.5C 574.833,140.5 573.167,140.5 571.5,140.5 Z"/></g>
<g><path style="opacity:1" fill="#404040" d="M 614.5,140.5 C 616.265,139.539 618.265,139.205 620.5,139.5C 620.833,356.667 620.5,573.667 619.5,790.5C 619.5,573.833 619.5,357.167 619.5,140.5C 617.833,140.5 616.167,140.5 614.5,140.5 Z"/></g>
<g><path style="opacity:1" fill="#404040" d="M 657.5,140.5 C 659.265,139.539 661.265,139.205 663.5,139.5C 663.833,356.667 663.5,573.667 662.5,790.5C 662.5,573.833 662.5,357.167 662.5,140.5C 660.833,140.5 659.167,140.5 657.5,140.5 Z"/></g>
<g><path style="opacity:1" fill="#7a7a7a" d="M 707.5,139.5 C 704.833,139.5 702.167,139.5 699.5,139.5C 699.832,178.004 699.499,216.337 698.5,254.5C 698.5,215.833 698.5,177.167 698.5,138.5C 701.713,138.19 704.713,138.523 707.5,139.5 Z"/></g>
<g><path style="opacity:1" fill="#ececec" d="M 707.5,139.5 C 707.667,361.167 707.5,582.834 707,804.5C 706.167,805.333 705.333,806.167 704.5,807C 697.5,807.667 690.5,807.667 683.5,807C 682.667,806.167 681.833,805.333 681,804.5C 680.333,796.833 680.333,789.167 681,781.5C 681.308,780.692 681.808,780.025 682.5,779.5C 687.77,778.549 693.103,778.215 698.5,778.5C 698.5,613.833 698.5,449.167 698.5,284.5C 692.282,285.023 686.282,284.356 680.5,282.5C 680.334,274.493 680.5,266.493 681,258.5C 681.833,257.667 682.667,256.833 683.5,256C 688.684,255.826 693.684,255.326 698.5,254.5C 699.499,216.337 699.832,178.004 699.5,139.5C 702.167,139.5 704.833,139.5 707.5,139.5 Z"/></g>
<g><path style="opacity:1" fill="#404040" d="M 743.5,140.5 C 745.265,139.539 747.265,139.205 749.5,139.5C 749.833,356.667 749.5,573.667 748.5,790.5C 748.5,573.833 748.5,357.167 748.5,140.5C 746.833,140.5 745.167,140.5 743.5,140.5 Z"/></g>
<g><path style="opacity:1" fill="#404040" d="M 786.5,140.5 C 788.265,139.539 790.265,139.205 792.5,139.5C 792.833,356.667 792.5,573.667 791.5,790.5C 791.5,573.833 791.5,357.167 791.5,140.5C 789.833,140.5 788.167,140.5 786.5,140.5 Z"/></g>
<g><path style="opacity:1" fill="#fefefe" d="M 528.5,140.5 C 530.167,140.5 531.833,140.5 533.5,140.5C 533.5,357.167 533.5,573.833 533.5,790.5C 532.081,791.451 530.415,791.784 528.5,791.5C 528.5,574.5 528.5,357.5 528.5,140.5 Z"/></g>
<g><path style="opacity:1" fill="#fefefe" d="M 571.5,140.5 C 573.167,140.5 574.833,140.5 576.5,140.5C 576.5,357.167 576.5,573.833 576.5,790.5C 575.081,791.451 573.415,791.784 571.5,791.5C 571.5,574.5 571.5,357.5 571.5,140.5 Z"/></g>
<g><path style="opacity:1" fill="#fefefe" d="M 614.5,140.5 C 616.167,140.5 617.833,140.5 619.5,140.5C 619.5,357.167 619.5,573.833 619.5,790.5C 618.081,791.451 616.415,791.784 614.5,791.5C 614.5,574.5 614.5,357.5 614.5,140.5 Z"/></g>
<g><path style="opacity:1" fill="#fefefe" d="M 657.5,140.5 C 659.167,140.5 660.833,140.5 662.5,140.5C 662.5,357.167 662.5,573.833 662.5,790.5C 661.081,791.451 659.415,791.784 657.5,791.5C 657.5,574.5 657.5,357.5 657.5,140.5 Z"/></g>
<g><path style="opacity:1" fill="#fefefe" d="M 743.5,140.5 C 745.167,140.5 746.833,140.5 748.5,140.5C 748.5,357.167 748.5,573.833 748.5,790.5C 747.081,791.451 745.415,791.784 743.5,791.5C 743.5,574.5 743.5,357.5 743.5,140.5 Z"/></g>
<g><path style="opacity:1" fill="#fefefe" d="M 786.5,140.5 C 788.167,140.5 789.833,140.5 791.5,140.5C 791.5,357.167 791.5,573.833 791.5,790.5C 790.081,791.451 788.415,791.784 786.5,791.5C 786.5,574.5 786.5,357.5 786.5,140.5 Z"/></g>
<g><path style="opacity:1" fill="#171717" d="M 1382.5,144.5 C 1394.4,143.348 1400.23,148.681 1400,160.5C 1396.59,169.955 1390.09,173.121 1380.5,170C 1370.78,160.594 1371.44,152.094 1382.5,144.5 Z"/></g>
<g><path style="opacity:1" fill="#434343" d="M 1005.5,173.5 C 1004.95,164.681 1004.29,156.014 1003.5,147.5C 1003.5,147.167 1003.5,146.833 1003.5,146.5C 1005.05,145.77 1005.88,144.437 1006,142.5C 1005.99,147.638 1005.83,152.805 1005.5,158C 1005.33,163.299 1006,168.466 1007.5,173.5C 1007.03,174.463 1006.36,174.463 1005.5,173.5 Z"/></g>
<g><path style="opacity:1" fill="#ececec" d="M 1383.5,146.5 C 1391.17,145.167 1396.17,148.167 1398.5,155.5C 1397.31,156.429 1395.98,156.762 1394.5,156.5C 1392.93,149.612 1388.93,147.779 1382.5,151C 1381.15,154.195 1378.82,156.028 1375.5,156.5C 1376.36,151.65 1379.02,148.317 1383.5,146.5 Z"/></g>
<g><path style="opacity:1" fill="#0a0a0a" d="M 1003.5,147.5 C 1004.29,156.014 1004.95,164.681 1005.5,173.5C 1004.88,173.389 1004.38,173.056 1004,172.5C 1003.5,164.173 1003.33,155.84 1003.5,147.5 Z"/></g>
<g><path style="opacity:1" fill="#131313" d="M 1020.5,144.5 C 1030.17,143.494 1036.17,147.661 1038.5,157C 1036.03,169.164 1029.03,173.164 1017.5,169C 1010.96,163.525 1009.8,157.025 1014,149.5C 1015.8,147.174 1017.97,145.508 1020.5,144.5 Z"/></g>
<g><path style="opacity:1" fill="#e5e5e5" d="M 1020.5,146.5 C 1029.2,144.664 1034.2,147.997 1035.5,156.5C 1032.15,153.843 1028.48,151.509 1024.5,149.5C 1020.8,150.369 1018.13,152.536 1016.5,156C 1015.55,156.483 1014.55,156.649 1013.5,156.5C 1013.87,151.742 1016.21,148.409 1020.5,146.5 Z"/></g>
<g><path style="opacity:1" fill="#f0f0f0" d="M 1022.5,152.5 C 1028.5,152.002 1030.67,154.669 1029,160.5C 1024.09,165.031 1020.93,164.031 1019.5,157.5C 1019.32,155.032 1020.32,153.365 1022.5,152.5 Z"/></g>
<g><path style="opacity:1" fill="#ededed" d="M 1384.5,152.5 C 1389.16,151.819 1391.82,153.819 1392.5,158.5C 1392.47,160.029 1391.8,161.196 1390.5,162C 1385.64,163.753 1382.64,162.253 1381.5,157.5C 1382.09,155.577 1383.09,153.911 1384.5,152.5 Z"/></g>
<g><path style="opacity:1" fill="#e0e0e0" d="M 1013.5,158.5 C 1014.68,158.281 1015.68,158.614 1016.5,159.5C 1018.83,164.829 1022.83,166.662 1028.5,165C 1030.46,162.894 1032.29,160.727 1034,158.5C 1035.06,158.63 1035.89,159.13 1036.5,160C 1031.13,170.587 1023.96,172.087 1015,164.5C 1013.87,162.655 1013.37,160.655 1013.5,158.5 Z"/></g>
<g><path style="opacity:1" fill="#dddddd" d="M 1375.5,158.5 C 1376.55,158.351 1377.55,158.517 1378.5,159C 1382.68,166.548 1387.84,167.381 1394,161.5C 1394.48,160.552 1394.65,159.552 1394.5,158.5C 1395.83,158.5 1397.17,158.5 1398.5,158.5C 1397.75,165.579 1393.75,169.246 1386.5,169.5C 1379.85,168.851 1376.18,165.184 1375.5,158.5 Z"/></g>
<g><path style="opacity:1" fill="#737373" d="M 1047.5,175.5 C 1047.5,185.5 1047.5,195.5 1047.5,205.5C 1046.67,199.347 1046.17,193.013 1046,186.5C 1045.28,185.956 1044.78,185.289 1044.5,184.5C 1045.45,183.081 1045.78,181.415 1045.5,179.5C 1046.34,179.158 1046.67,178.492 1046.5,177.5C 1046.33,176.508 1046.66,175.842 1047.5,175.5 Z"/></g>
<g><path style="opacity:1" fill="#878787" d="M 1428.5,175.5 C 1428.5,175.833 1428.5,176.167 1428.5,176.5C 1428.5,221.833 1428.5,267.167 1428.5,312.5C 1443.17,312.5 1457.83,312.5 1472.5,312.5C 1472.83,312.5 1473.17,312.5 1473.5,312.5C 1473.83,313.833 1474.17,313.833 1474.5,312.5C 1475.17,312.5 1475.83,312.5 1476.5,312.5C 1476.83,313.833 1477.17,313.833 1477.5,312.5C 1479.41,312.216 1481.08,312.549 1482.5,313.5C 1464.33,315.278 1446,316.111 1427.5,316C 1498.17,317 1498.17,318 1427.5,319C 1445.18,319.167 1462.84,319.667 1480.5,320.5C 1462.43,321.154 1445.1,321.82 1428.5,322.5C 1428.5,369.833 1428.5,417.167 1428.5,464.5C 1443.17,464.5 1457.83,464.5 1472.5,464.5C 1472.5,417.167 1472.5,369.833 1472.5,322.5C 1473.33,369.998 1473.83,417.665 1474,465.5C 1474.17,417.83 1474.67,370.163 1475.5,322.5C 1476.16,370.567 1476.83,417.901 1477.5,464.5C 1479.41,464.216 1481.08,464.549 1482.5,465.5C 1464.33,467.278 1446,468.111 1427.5,468C 1498.17,469 1498.17,470 1427.5,471C 1445.18,471.167 1462.84,471.667 1480.5,472.5C 1462.43,473.154 1445.1,473.82 1428.5,474.5C 1428.5,521.833 1428.5,569.167 1428.5,616.5C 1428.5,616.833 1428.5,617.167 1428.5,617.5C 1445.09,618.339 1462.43,618.839 1480.5,619C 1409.83,620 1409.83,621 1480.5,622C 1409.83,623 1409.83,624 1480.5,625C 1462.83,625.333 1445.17,625.667 1427.5,626C 1442.83,626.5 1458.16,626.667 1473.5,626.5C 1473.5,672.167 1473.5,717.833 1473.5,763.5C 1457.5,763.5 1441.5,763.5 1425.5,763.5C 1425.5,567.5 1425.5,371.5 1425.5,175.5C 1426.5,175.5 1427.5,175.5 1428.5,175.5 Z"/></g>
<g><path style="opacity:1" fill="#929292" d="M 442.5,312.5 C 441.833,312.833 441.167,313.167 440.5,313.5C 440.167,267.495 440.5,221.495 441.5,175.5C 442.5,221.162 442.833,266.828 442.5,312.5 Z"/></g>
<g><path style="opacity:1" fill="#7e7e7e" d="M 489.5,176.5 C 489.832,222.003 489.499,267.336 488.5,312.5C 488.5,267.167 488.5,221.833 488.5,176.5C 473.833,176.5 459.167,176.5 444.5,176.5C 444.5,221.833 444.5,267.167 444.5,312.5C 444.167,312.5 443.833,312.5 443.5,312.5C 443.5,266.833 443.5,221.167 443.5,175.5C 459.009,175.17 474.342,175.504 489.5,176.5 Z"/></g>
<g><path style="opacity:1" fill="#fefffe" d="M 488.5,312.5 C 473.833,312.5 459.167,312.5 444.5,312.5C 444.5,267.167 444.5,221.833 444.5,176.5C 459.167,176.5 473.833,176.5 488.5,176.5C 488.5,221.833 488.5,267.167 488.5,312.5 Z"/></g>
<g><path style="opacity:1" fill="#898989" d="M 488.5,763.5 C 488.5,763.167 488.5,762.833 488.5,762.5C 488.5,717.5 488.5,672.5 488.5,627.5C 488.5,627.167 488.5,626.833 488.5,626.5C 471.908,625.661 454.574,625.161 436.5,625C 507.167,624 507.167,623 436.5,622C 507.167,621 507.167,620 436.5,619C 454.574,618.839 471.908,618.339 488.5,617.5C 488.5,617.167 488.5,616.833 488.5,616.5C 488.5,569.167 488.5,521.833 488.5,474.5C 471.908,473.661 454.574,473.161 436.5,473C 507.167,472 507.167,471 436.5,470C 454.176,469.833 471.843,469.333 489.5,468.5C 471.012,468.113 452.679,467.113 434.5,465.5C 435.919,464.549 437.585,464.216 439.5,464.5C 439.5,465.167 439.833,465.5 440.5,465.5C 441.167,465.167 441.833,464.833 442.5,464.5C 443.171,417.736 443.838,370.402 444.5,322.5C 444.5,369.833 444.5,417.167 444.5,464.5C 459.167,464.5 473.833,464.5 488.5,464.5C 488.5,417.167 488.5,369.833 488.5,322.5C 471.908,321.661 454.574,321.161 436.5,321C 507.167,320 507.167,319 436.5,318C 454.176,317.833 471.843,317.333 489.5,316.5C 471.012,316.113 452.679,315.113 434.5,313.5C 435.919,312.549 437.585,312.216 439.5,312.5C 439.5,313.167 439.833,313.5 440.5,313.5C 441.167,313.167 441.833,312.833 442.5,312.5C 442.833,313.833 443.167,313.833 443.5,312.5C 443.833,312.5 444.167,312.5 444.5,312.5C 459.167,312.5 473.833,312.5 488.5,312.5C 489.499,267.336 489.832,222.003 489.5,176.5C 490.117,176.389 490.617,176.056 491,175.5C 491.5,371.5 491.667,567.5 491.5,763.5C 490.5,763.5 489.5,763.5 488.5,763.5 Z"/></g>
<g><path style="opacity:1" fill="#fefffe" d="M 1428.5,176.5 C 1443.17,176.5 1457.83,176.5 1472.5,176.5C 1472.5,221.833 1472.5,267.167 1472.5,312.5C 1457.83,312.5 1443.17,312.5 1428.5,312.5C 1428.5,267.167 1428.5,221.833 1428.5,176.5 Z"/></g>
<g><path style="opacity:1" fill="#7e7e7e" d="M 1428.5,176.5 C 1428.5,176.167 1428.5,175.833 1428.5,175.5C 1443.5,175.5 1458.5,175.5 1473.5,175.5C 1473.5,221.167 1473.5,266.833 1473.5,312.5C 1473.17,312.5 1472.83,312.5 1472.5,312.5C 1472.5,267.167 1472.5,221.833 1472.5,176.5C 1457.83,176.5 1443.17,176.5 1428.5,176.5 Z"/></g>
<g><path style="opacity:1" fill="#939393" d="M 1476.5,312.5 C 1475.83,312.5 1475.17,312.5 1474.5,312.5C 1475.17,129.833 1475.83,129.833 1476.5,312.5 Z"/></g>
<g><path style="opacity:1" fill="#eaeaea" d="M 1045.5,179.5 C 1045.78,181.415 1045.45,183.081 1044.5,184.5C 1044.08,182.248 1042.75,180.748 1040.5,180C 1042.13,179.506 1043.8,179.34 1045.5,179.5 Z"/></g>
<g><path style="opacity:1" fill="#cfcfcf" d="M 1365.5,179.5 C 1367.2,179.34 1368.87,179.506 1370.5,180C 1368.64,181.558 1367.14,183.391 1366,185.5C 1365.5,183.527 1365.34,181.527 1365.5,179.5 Z"/></g>
<g><path style="opacity:1" fill="#fbfbfb" d="M 1049.5,214.5 C 1049.57,212.973 1048.91,211.973 1047.5,211.5C 1047.5,210.167 1047.5,208.833 1047.5,207.5C 1051.17,207.5 1054.83,207.5 1058.5,207.5C 1058.5,211.167 1058.5,214.833 1058.5,218.5C 1057.13,218.657 1055.79,218.49 1054.5,218C 1053.15,216.331 1051.49,215.164 1049.5,214.5 Z"/></g>
<g><path style="opacity:1" fill="#fefefe" d="M 1060.5,207.5 C 1157.5,207.5 1254.5,207.5 1351.5,207.5C 1351.5,211.167 1351.5,214.833 1351.5,218.5C 1254.5,218.5 1157.5,218.5 1060.5,218.5C 1060.5,214.833 1060.5,211.167 1060.5,207.5 Z"/></g>
<g><path style="opacity:1" fill="#f4f4f4" d="M 1363.5,212.5 C 1362.51,213.795 1361.51,215.128 1360.5,216.5C 1358.25,217.455 1355.92,218.122 1353.5,218.5C 1353.5,214.833 1353.5,211.167 1353.5,207.5C 1357.17,207.5 1360.83,207.5 1364.5,207.5C 1364.37,209.216 1364.04,210.883 1363.5,212.5 Z"/></g>
<g><path style="opacity:1" fill="#6f6f6f" d="M 1047.5,211.5 C 1048.91,211.973 1049.57,212.973 1049.5,214.5C 1049.5,215.167 1049.5,215.833 1049.5,216.5C 1046.81,215.409 1046.14,213.743 1047.5,211.5 Z"/></g>
<g><path style="opacity:1" fill="#737373" d="M 1360.5,216.5 C 1361.51,215.128 1362.51,213.795 1363.5,212.5C 1364.36,211.537 1365.03,211.537 1365.5,212.5C 1364.88,214.754 1363.54,216.421 1361.5,217.5C 1360.89,217.376 1360.56,217.043 1360.5,216.5 Z"/></g>
<g><path style="opacity:1" fill="#8b8b8b" d="M 1049.5,216.5 C 1050.76,216.461 1051.76,216.961 1052.5,218C 1051,218.585 1050,218.085 1049.5,216.5 Z"/></g>
<g><path style="opacity:1" fill="#bebebe" d="M 844.5,229.5 C 892.33,228.501 940.33,228.168 988.5,228.5C 988.784,230.415 988.451,232.081 987.5,233.5C 987.5,232.167 987.5,230.833 987.5,229.5C 939.833,229.5 892.167,229.5 844.5,229.5 Z"/></g>
<g><path style="opacity:1" fill="#cfcfcf" d="M 836.5,228.5 C 838.5,228.5 840.5,228.5 842.5,228.5C 842.5,230.167 842.5,231.833 842.5,233.5C 841.5,233.5 840.5,233.5 839.5,233.5C 838.075,232.078 837.075,230.411 836.5,228.5 Z"/></g>
<g><path style="opacity:1" fill="#fefffe" d="M 844.5,229.5 C 892.167,229.5 939.833,229.5 987.5,229.5C 987.5,230.833 987.5,232.167 987.5,233.5C 939.833,233.5 892.167,233.5 844.5,233.5C 844.5,232.167 844.5,230.833 844.5,229.5 Z"/></g>
<g><path style="opacity:1" fill="#dfdfdf" d="M 990.5,228.5 C 998.044,228.449 998.377,230.116 991.5,233.5C 990.548,231.955 990.215,230.288 990.5,228.5 Z"/></g>
<g><path style="opacity:1" fill="#7e7f7e" d="M 837.5,233.5 C 836.511,238.975 836.178,244.642 836.5,250.5C 835.833,250.5 835.167,250.5 834.5,250.5C 834.5,250.167 834.5,249.833 834.5,249.5C 835.167,243.986 835.833,238.319 836.5,232.5C 837.107,232.624 837.44,232.957 837.5,233.5 Z"/></g>
<g><path style="opacity:1" fill="#fafafa" d="M 994.5,256.5 C 993.292,257.234 991.959,257.567 990.5,257.5C 990.5,250.167 990.5,242.833 990.5,235.5C 992.291,234.609 994.124,233.609 996,232.5C 996.984,240.638 996.484,248.638 994.5,256.5 Z"/></g>
<g><path style="opacity:1" fill="#f9f9f9" d="M 837.5,233.5 C 838.167,233.5 838.833,233.5 839.5,233.5C 839.5,233.833 839.5,234.167 839.5,234.5C 841.414,241.892 842.081,249.559 841.5,257.5C 837.88,256.548 836.213,254.215 836.5,250.5C 836.178,244.642 836.511,238.975 837.5,233.5 Z"/></g>
<g><path style="opacity:1" fill="#b6b6b6" d="M 839.5,234.5 C 840.5,234.5 841.5,234.5 842.5,234.5C 842.825,242.352 842.492,250.018 841.5,257.5C 842.081,249.559 841.414,241.892 839.5,234.5 Z"/></g>
<g><path style="opacity:1" fill="#fefffe" d="M 987.5,235.5 C 987.5,242.833 987.5,250.167 987.5,257.5C 939.833,257.5 892.167,257.5 844.5,257.5C 844.5,250.167 844.5,242.833 844.5,235.5C 892.167,235.5 939.833,235.5 987.5,235.5 Z"/></g>
<g><path style="opacity:1" fill="#4a4a4a" d="M 990.5,235.5 C 990.5,242.833 990.5,250.167 990.5,257.5C 991.959,257.567 993.292,257.234 994.5,256.5C 997.203,258.11 1000.2,259.11 1003.5,259.5C 999.833,259.5 996.167,259.5 992.5,259.5C 992.167,259.5 991.833,259.5 991.5,259.5C 990.235,255.588 989.569,251.421 989.5,247C 989.501,242.985 989.835,239.151 990.5,235.5 Z"/></g>
<g><path style="opacity:1" fill="#fdfdfd" d="M 1210.5,256.5 C 1218.51,256.334 1226.51,256.5 1234.5,257C 1235.83,265.667 1235.83,274.333 1234.5,283C 1229.03,284.092 1223.53,284.926 1218,285.5C 1217.33,449.5 1217.33,613.5 1218,777.5C 1223.08,778.307 1228.25,778.807 1233.5,779C 1234,779.5 1234.5,780 1235,780.5C 1235.67,788.833 1235.67,797.167 1235,805.5C 1226.67,806.833 1218.33,806.833 1210,805.5C 1209.17,622.431 1209.33,439.431 1210.5,256.5 Z"/></g>
<g><path style="opacity:1" fill="#bebebe" d="M 987.5,235.5 C 988.492,242.982 988.825,250.648 988.5,258.5C 940.33,258.832 892.33,258.499 844.5,257.5C 892.167,257.5 939.833,257.5 987.5,257.5C 987.5,250.167 987.5,242.833 987.5,235.5 Z"/></g>
<g><path style="opacity:1" fill="#191919" d="M 689.5,258.5 C 698.998,257.173 703.498,261.173 703,270.5C 697.572,277.733 691.905,278.066 686,271.5C 684.85,269.246 684.516,266.913 685,264.5C 686.332,262.34 687.832,260.34 689.5,258.5 Z"/></g>
<g><path style="opacity:1" fill="#1f1f1f" d="M 820.5,259.5 C 824.167,259.5 827.833,259.5 831.5,259.5C 831.667,440.834 831.5,622.167 831,803.5C 827.333,804.833 823.667,804.833 820,803.5C 819.168,622.097 819.335,440.764 820.5,259.5 Z"/></g>
<g><path style="opacity:1" fill="#949494" d="M 906.5,802.5 C 905.5,622.001 905.167,441.334 905.5,260.5C 895.5,260.5 885.5,260.5 875.5,260.5C 875.833,441.334 875.5,622.001 874.5,802.5C 874.5,621.5 874.5,440.5 874.5,259.5C 885.167,259.5 895.833,259.5 906.5,259.5C 906.5,440.5 906.5,621.5 906.5,802.5 Z"/></g>
<g><path style="opacity:1" fill="#949494" d="M 949.5,802.5 C 948.5,622.001 948.167,441.334 948.5,260.5C 938.5,260.5 928.5,260.5 918.5,260.5C 918.833,441.334 918.5,622.001 917.5,802.5C 917.5,621.5 917.5,440.5 917.5,259.5C 928.167,259.5 938.833,259.5 949.5,259.5C 949.5,440.5 949.5,621.5 949.5,802.5 Z"/></g>
<g><path style="opacity:1" fill="#949494" d="M 991.5,259.5 C 991.833,259.5 992.167,259.5 992.5,259.5C 992.5,440.5 992.5,621.5 992.5,802.5C 991.5,622.001 991.167,441.334 991.5,260.5C 981.5,260.5 971.5,260.5 961.5,260.5C 961.833,441.334 961.5,622.001 960.5,802.5C 960.5,621.5 960.5,440.5 960.5,259.5C 970.833,259.5 981.167,259.5 991.5,259.5 Z"/></g>
<g><path style="opacity:1" fill="#2a2a2a" d="M 992.5,259.5 C 996.167,259.5 999.833,259.5 1003.5,259.5C 1004.67,440.333 1004.83,621.333 1004,802.5C 1000.82,804.523 997.317,805.023 993.5,804C 992.944,803.617 992.611,803.117 992.5,802.5C 992.5,621.5 992.5,440.5 992.5,259.5 Z"/></g>
<g><path style="opacity:1" fill="#252525" d="M 1035.5,259.5 C 1039.5,259.5 1043.5,259.5 1047.5,259.5C 1047.67,440.5 1047.5,621.5 1047,802.5C 1043.56,804.733 1039.89,805.067 1036,803.5C 1035.5,622.167 1035.33,440.834 1035.5,259.5 Z"/></g>
<g><path style="opacity:1" fill="#1f1f1f" d="M 1078.5,259.5 C 1082.5,259.5 1086.5,259.5 1090.5,259.5C 1090.67,440.5 1090.5,621.5 1090,802.5C 1086.56,804.733 1082.89,805.067 1079,803.5C 1078.5,622.167 1078.33,440.834 1078.5,259.5 Z"/></g>
<g><path style="opacity:1" fill="#161616" d="M 1121.5,259.5 C 1125.44,259.207 1129.27,259.54 1133,260.5C 1133.67,441.167 1133.67,621.833 1133,802.5C 1131.47,803.72 1129.64,804.387 1127.5,804.5C 1125.57,804.46 1123.74,804.127 1122,803.5C 1121.5,622.167 1121.33,440.834 1121.5,259.5 Z"/></g>
<g><path style="opacity:1" fill="#191919" d="M 1164.5,259.5 C 1168.44,259.207 1172.27,259.54 1176,260.5C 1176.67,441.167 1176.67,621.833 1176,802.5C 1174.47,803.72 1172.64,804.387 1170.5,804.5C 1168.57,804.46 1166.74,804.127 1165,803.5C 1164.5,622.167 1164.33,440.834 1164.5,259.5 Z"/></g>
<g><path style="opacity:1" fill="#161616" d="M 1251.5,259.5 C 1255.17,259.5 1258.83,259.5 1262.5,259.5C 1262.67,440.834 1262.5,622.167 1262,803.5C 1260.26,804.127 1258.43,804.46 1256.5,804.5C 1254.36,804.387 1252.53,803.72 1251,802.5C 1250.17,621.431 1250.33,440.431 1251.5,259.5 Z"/></g>
<g><path style="opacity:1" fill="#191919" d="M 1294.5,803.5 C 1294.52,801.073 1295.02,798.74 1296,796.5C 1296.67,619.833 1296.67,443.167 1296,266.5C 1295.19,264.564 1294.69,262.564 1294.5,260.5C 1297.96,259.518 1301.63,259.185 1305.5,259.5C 1305.67,440.834 1305.5,622.167 1305,803.5C 1301.4,804.82 1297.9,804.82 1294.5,803.5 Z"/></g>
<g><path style="opacity:1" fill="#1f1f1f" d="M 1337.5,259.5 C 1341.17,259.5 1344.83,259.5 1348.5,259.5C 1348.67,440.834 1348.5,622.167 1348,803.5C 1344.33,804.833 1340.67,804.833 1337,803.5C 1336.17,622.097 1336.33,440.764 1337.5,259.5 Z"/></g>
<g><path style="opacity:1" fill="#2a2a2a" d="M 1380.5,259.5 C 1384.17,259.5 1387.83,259.5 1391.5,259.5C 1391.67,440.834 1391.5,622.167 1391,803.5C 1387.33,804.833 1383.67,804.833 1380,803.5C 1379.17,622.097 1379.33,440.764 1380.5,259.5 Z"/></g>
<g><path style="opacity:1" fill="#efefef" d="M 693.5,259.5 C 700.641,260.782 702.808,264.782 700,271.5C 693.079,276.458 688.579,274.791 686.5,266.5C 687.252,262.414 689.585,260.081 693.5,259.5 Z"/></g>
<g><path style="opacity:1" fill="#404040" d="M 1294.5,260.5 C 1294.69,262.564 1295.19,264.564 1296,266.5C 1296.67,443.167 1296.67,619.833 1296,796.5C 1295.02,798.74 1294.52,801.073 1294.5,803.5C 1293.17,622.5 1293.17,441.5 1294.5,260.5 Z"/></g>
<g><path style="opacity:1" fill="#eaeaea" d="M 823.5,261.5 C 824.833,261.5 826.167,261.5 827.5,261.5C 827.5,264.5 827.5,267.5 827.5,270.5C 826.167,270.5 824.833,270.5 823.5,270.5C 823.5,267.5 823.5,264.5 823.5,261.5 Z"/></g>
<g><path style="opacity:1" fill="#e9e9e9" d="M 866.5,261.5 C 868.288,261.215 869.955,261.548 871.5,262.5C 870.607,265.084 870.274,267.751 870.5,270.5C 869.178,270.67 868.011,270.337 867,269.5C 866.503,266.854 866.336,264.187 866.5,261.5 Z"/></g>
<g><path style="opacity:1" fill="#d7d7d7" d="M 909.5,261.5 C 911.167,261.5 912.833,261.5 914.5,261.5C 914.5,264.5 914.5,267.5 914.5,270.5C 912.833,270.5 911.167,270.5 909.5,270.5C 909.5,267.5 909.5,264.5 909.5,261.5 Z"/></g>
<g><path style="opacity:1" fill="#ebebeb" d="M 957.5,262.5 C 957.5,264.833 957.5,267.167 957.5,269.5C 956.167,269.5 954.833,269.5 953.5,269.5C 953.5,267.167 953.5,264.833 953.5,262.5C 954.833,262.5 956.167,262.5 957.5,262.5 Z"/></g>
<g><path style="opacity:1" fill="#f2f2f2" d="M 1000.5,263.5 C 999.539,265.265 999.205,267.265 999.5,269.5C 998.5,269.5 997.5,269.5 996.5,269.5C 996.784,267.585 996.451,265.919 995.5,264.5C 995.5,263.5 995.5,262.5 995.5,261.5C 997.781,261.077 999.448,261.744 1000.5,263.5 Z"/></g>
<g><path style="opacity:1" fill="#e1e1e1" d="M 1038.5,261.5 C 1040.17,261.5 1041.83,261.5 1043.5,261.5C 1043.5,264.5 1043.5,267.5 1043.5,270.5C 1042.17,270.5 1040.83,270.5 1039.5,270.5C 1039.04,267.518 1038.7,264.518 1038.5,261.5 Z"/></g>
<g><path style="opacity:1" fill="#e7e7e7" d="M 1081.5,261.5 C 1083.17,261.5 1084.83,261.5 1086.5,261.5C 1086.5,264.5 1086.5,267.5 1086.5,270.5C 1085.17,270.5 1083.83,270.5 1082.5,270.5C 1082.49,267.455 1082.16,264.455 1081.5,261.5 Z"/></g>
<g><path style="opacity:1" fill="#ececec" d="M 1124.5,261.5 C 1126.17,261.5 1127.83,261.5 1129.5,261.5C 1129.5,264.5 1129.5,267.5 1129.5,270.5C 1128.17,270.5 1126.83,270.5 1125.5,270.5C 1125.63,267.43 1125.3,264.43 1124.5,261.5 Z"/></g>
<g><path style="opacity:1" fill="#e7e7e7" d="M 1167.5,262.5 C 1169.26,261.539 1171.26,261.205 1173.5,261.5C 1172.84,264.455 1172.51,267.455 1172.5,270.5C 1171.17,270.5 1169.83,270.5 1168.5,270.5C 1168.81,267.615 1168.47,264.948 1167.5,262.5 Z"/></g>
<g><path style="opacity:1" fill="#ededed" d="M 1254.5,261.5 C 1256.43,261.231 1258.1,261.731 1259.5,263C 1258.56,265.381 1258.23,267.881 1258.5,270.5C 1257.17,270.5 1255.83,270.5 1254.5,270.5C 1254.5,267.5 1254.5,264.5 1254.5,261.5 Z"/></g>
<g><path style="opacity:1" fill="#ececec" d="M 1297.5,261.5 C 1298.83,261.5 1300.17,261.5 1301.5,261.5C 1301.5,264.5 1301.5,267.5 1301.5,270.5C 1300.17,270.5 1298.83,270.5 1297.5,270.5C 1297.5,267.5 1297.5,264.5 1297.5,261.5 Z"/></g>
<g><path style="opacity:1" fill="#e9e9e9" d="M 1340.5,261.5 C 1341.83,261.5 1343.17,261.5 1344.5,261.5C 1344.5,264.5 1344.5,267.5 1344.5,270.5C 1343.17,270.5 1341.83,270.5 1340.5,270.5C 1340.5,267.5 1340.5,264.5 1340.5,261.5 Z"/></g>
<g><path style="opacity:1" fill="#d6d6d6" d="M 1383.5,261.5 C 1385.17,261.5 1386.83,261.5 1388.5,261.5C 1388.5,264.5 1388.5,267.5 1388.5,270.5C 1386.86,270.714 1385.36,270.38 1384,269.5C 1383.5,266.854 1383.34,264.187 1383.5,261.5 Z"/></g>
<g><path style="opacity:1" fill="#9f9f9f" d="M 1000.5,263.5 C 1000.5,265.833 1000.5,268.167 1000.5,270.5C 998.833,270.5 997.167,270.5 995.5,270.5C 995.5,268.5 995.5,266.5 995.5,264.5C 996.451,265.919 996.784,267.585 996.5,269.5C 997.5,269.5 998.5,269.5 999.5,269.5C 999.205,267.265 999.539,265.265 1000.5,263.5 Z"/></g>
<g><path style="opacity:1" fill="#3f403f" d="M 1131.5,263.5 C 1132.67,441.666 1132.83,620 1132,798.5C 1130.84,709.543 1130.34,620.543 1130.5,531.5C 1130.51,442.15 1130.84,352.816 1131.5,263.5 Z"/></g>
<g><path style="opacity:1" fill="#3f403f" d="M 1251.5,264.5 C 1252.29,265.609 1252.79,266.942 1253,268.5C 1253.17,356.167 1253.33,443.833 1253.5,531.5C 1253.66,620.868 1253.16,710.202 1252,799.5C 1251.5,621.167 1251.33,442.834 1251.5,264.5 Z"/></g>
<g><path style="opacity:1" fill="#a6a6a6" d="M 957.5,262.5 C 956.167,262.5 954.833,262.5 953.5,262.5C 953.5,264.833 953.5,267.167 953.5,269.5C 954.833,269.5 956.167,269.5 957.5,269.5C 956.081,270.451 954.415,270.784 952.5,270.5C 952.5,267.5 952.5,264.5 952.5,261.5C 954.415,261.216 956.081,261.549 957.5,262.5 Z"/></g>
<g><path style="opacity:1" fill="#1c1c1c" d="M 1220.5,257.5 C 1228.74,257.597 1232.24,261.93 1231,270.5C 1225.33,278.5 1219.67,278.5 1214,270.5C 1213.01,264.477 1215.18,260.144 1220.5,257.5 Z"/></g>
<g><path style="opacity:1" fill="#f3f3f3" d="M 1220.5,259.5 C 1229.52,260.549 1231.86,265.049 1227.5,273C 1218.88,275.713 1215.04,272.546 1216,263.5C 1217.4,261.93 1218.9,260.596 1220.5,259.5 Z"/></g>
<g><path style="opacity:1" fill="#f1f1f1" d="M 823.5,272.5 C 824.833,272.5 826.167,272.5 827.5,272.5C 827.5,445.167 827.5,617.833 827.5,790.5C 826.167,790.5 824.833,790.5 823.5,790.5C 823.5,617.833 823.5,445.167 823.5,272.5 Z"/></g>
<g><path style="opacity:1" fill="#7e7e7e" d="M 870.5,272.5 C 869.5,272.5 868.5,272.5 867.5,272.5C 867.5,445.167 867.5,617.833 867.5,790.5C 866.5,617.667 866.167,444.667 866.5,271.5C 868.099,271.232 869.432,271.566 870.5,272.5 Z"/></g>
<g><path style="opacity:1" fill="#fefffe" d="M 870.5,272.5 C 870.5,445.167 870.5,617.833 870.5,790.5C 869.5,790.5 868.5,790.5 867.5,790.5C 867.5,617.833 867.5,445.167 867.5,272.5C 868.5,272.5 869.5,272.5 870.5,272.5 Z"/></g>
<g><path style="opacity:1" fill="#7e7e7e" d="M 913.5,272.5 C 912.5,272.5 911.5,272.5 910.5,272.5C 910.5,445.167 910.5,617.833 910.5,790.5C 909.5,617.667 909.167,444.667 909.5,271.5C 911.099,271.232 912.432,271.566 913.5,272.5 Z"/></g>
<g><path style="opacity:1" fill="#fefffe" d="M 913.5,272.5 C 913.5,445.167 913.5,617.833 913.5,790.5C 912.5,790.5 911.5,790.5 910.5,790.5C 910.5,617.833 910.5,445.167 910.5,272.5C 911.5,272.5 912.5,272.5 913.5,272.5 Z"/></g>
<g><path style="opacity:1" fill="#7e7e7e" d="M 913.5,272.5 C 914.5,445.333 914.833,618.333 914.5,791.5C 912.901,791.768 911.568,791.434 910.5,790.5C 911.5,790.5 912.5,790.5 913.5,790.5C 913.5,617.833 913.5,445.167 913.5,272.5 Z"/></g>
<g><path style="opacity:1" fill="#7e7e7e" d="M 956.5,272.5 C 955.5,272.5 954.5,272.5 953.5,272.5C 953.5,445.167 953.5,617.833 953.5,790.5C 952.5,617.667 952.167,444.667 952.5,271.5C 954.099,271.232 955.432,271.566 956.5,272.5 Z"/></g>
<g><path style="opacity:1" fill="#fefffe" d="M 956.5,272.5 C 956.5,445.167 956.5,617.833 956.5,790.5C 955.5,790.5 954.5,790.5 953.5,790.5C 953.5,617.833 953.5,445.167 953.5,272.5C 954.5,272.5 955.5,272.5 956.5,272.5 Z"/></g>
<g><path style="opacity:1" fill="#7e7e7e" d="M 956.5,272.5 C 957.5,445.333 957.833,618.333 957.5,791.5C 955.901,791.768 954.568,791.434 953.5,790.5C 954.5,790.5 955.5,790.5 956.5,790.5C 956.5,617.833 956.5,445.167 956.5,272.5 Z"/></g>
<g><path style="opacity:1" fill="#fefffe" d="M 999.5,272.5 C 999.5,445.167 999.5,617.833 999.5,790.5C 998.5,790.5 997.5,790.5 996.5,790.5C 996.5,617.833 996.5,445.167 996.5,272.5C 997.5,272.5 998.5,272.5 999.5,272.5 Z"/></g>
<g><path style="opacity:1" fill="#7e7e7e" d="M 999.5,272.5 C 1000.5,445.333 1000.83,618.333 1000.5,791.5C 998.901,791.768 997.568,791.434 996.5,790.5C 997.5,790.5 998.5,790.5 999.5,790.5C 999.5,617.833 999.5,445.167 999.5,272.5 Z"/></g>
<g><path style="opacity:1" fill="#f1f1f1" d="M 1039.5,272.5 C 1040.83,272.5 1042.17,272.5 1043.5,272.5C 1043.5,445.167 1043.5,617.833 1043.5,790.5C 1042.17,790.5 1040.83,790.5 1039.5,790.5C 1039.5,617.833 1039.5,445.167 1039.5,272.5 Z"/></g>
<g><path style="opacity:1" fill="#f1f1f1" d="M 1082.5,272.5 C 1083.83,272.5 1085.17,272.5 1086.5,272.5C 1086.5,445.167 1086.5,617.833 1086.5,790.5C 1085.17,790.5 1083.83,790.5 1082.5,790.5C 1082.5,617.833 1082.5,445.167 1082.5,272.5 Z"/></g>
<g><path style="opacity:1" fill="#f1f1f1" d="M 1125.5,272.5 C 1126.83,272.5 1128.17,272.5 1129.5,272.5C 1129.5,445.167 1129.5,617.833 1129.5,790.5C 1128.17,790.5 1126.83,790.5 1125.5,790.5C 1125.5,617.833 1125.5,445.167 1125.5,272.5 Z"/></g>
<g><path style="opacity:1" fill="#fefffe" d="M 1168.5,272.5 C 1169.83,272.5 1171.17,272.5 1172.5,272.5C 1172.5,445.167 1172.5,617.833 1172.5,790.5C 1171.17,790.5 1169.83,790.5 1168.5,790.5C 1168.5,617.833 1168.5,445.167 1168.5,272.5 Z"/></g>
<g><path style="opacity:1" fill="#f1f1f1" d="M 1254.5,272.5 C 1255.83,272.5 1257.17,272.5 1258.5,272.5C 1258.5,445.167 1258.5,617.833 1258.5,790.5C 1257.17,790.5 1255.83,790.5 1254.5,790.5C 1254.5,617.833 1254.5,445.167 1254.5,272.5 Z"/></g>
<g><path style="opacity:1" fill="#f1f1f1" d="M 1297.5,272.5 C 1298.83,272.5 1300.17,272.5 1301.5,272.5C 1301.5,445.167 1301.5,617.833 1301.5,790.5C 1300.17,790.5 1298.83,790.5 1297.5,790.5C 1297.5,617.833 1297.5,445.167 1297.5,272.5 Z"/></g>
<g><path style="opacity:1" fill="#f1f1f1" d="M 1340.5,272.5 C 1341.83,272.5 1343.17,272.5 1344.5,272.5C 1344.5,445.167 1344.5,617.833 1344.5,790.5C 1343.17,790.5 1341.83,790.5 1340.5,790.5C 1340.5,617.833 1340.5,445.167 1340.5,272.5 Z"/></g>
<g><path style="opacity:1" fill="#7e7e7e" d="M 1387.5,272.5 C 1386.5,272.5 1385.5,272.5 1384.5,272.5C 1384.5,445.167 1384.5,617.833 1384.5,790.5C 1383.5,617.667 1383.17,444.667 1383.5,271.5C 1385.1,271.232 1386.43,271.566 1387.5,272.5 Z"/></g>
<g><path style="opacity:1" fill="#fefffe" d="M 1387.5,272.5 C 1387.5,445.167 1387.5,617.833 1387.5,790.5C 1386.5,790.5 1385.5,790.5 1384.5,790.5C 1384.5,617.833 1384.5,445.167 1384.5,272.5C 1385.5,272.5 1386.5,272.5 1387.5,272.5 Z"/></g>
<g><path style="opacity:1" fill="#bcbcbc" d="M 1496.5,278.5 C 1495.17,278.5 1493.83,278.5 1492.5,278.5C 1492.5,309.167 1492.5,339.833 1492.5,370.5C 1491.5,339.671 1491.17,308.671 1491.5,277.5C 1493.41,277.216 1495.08,277.549 1496.5,278.5 Z"/></g>
<g><path style="opacity:1" fill="#fcfcfc" d="M 1496.5,278.5 C 1517.95,281.797 1539.28,285.63 1560.5,290C 1562.7,292.234 1564.53,294.734 1566,297.5C 1566.79,316.198 1566.63,334.865 1565.5,353.5C 1562.1,357.536 1557.77,360.036 1552.5,361C 1532.51,364.277 1512.51,367.443 1492.5,370.5C 1492.5,339.833 1492.5,309.167 1492.5,278.5C 1493.83,278.5 1495.17,278.5 1496.5,278.5 Z"/></g>
<g><path style="opacity:1" fill="#bebebe" d="M 420.5,285.5 C 421.919,284.549 423.585,284.216 425.5,284.5C 425.832,331.336 425.499,378.003 424.5,424.5C 424.5,378.167 424.5,331.833 424.5,285.5C 423.167,285.5 421.833,285.5 420.5,285.5 Z"/></g>
<g><path style="opacity:1" fill="#fcfcfc" d="M 420.5,285.5 C 421.833,285.5 423.167,285.5 424.5,285.5C 424.5,331.833 424.5,378.167 424.5,424.5C 403.488,422.517 382.488,420.351 361.5,418C 357.183,415.685 354.35,412.185 353,407.5C 352.333,371.833 352.333,336.167 353,300.5C 355.206,294.808 359.373,291.641 365.5,291C 383.801,288.776 402.134,286.942 420.5,285.5 Z"/></g>
<g><path style="opacity:1" fill="#7d7d7d" d="M 696.5,286.5 C 697.5,449.999 697.833,613.666 697.5,777.5C 692.833,777.5 688.167,777.5 683.5,777.5C 687.634,776.515 691.968,776.182 696.5,776.5C 696.5,613.167 696.5,449.833 696.5,286.5 Z"/></g>
<g><path style="opacity:1" fill="#1b1b1b" d="M 1524.5,307.5 C 1538.83,307.331 1545.33,314.331 1544,328.5C 1538.08,339.695 1529.58,342.195 1518.5,336C 1510.57,327.635 1510.57,319.302 1518.5,311C 1520.73,310.059 1522.73,308.892 1524.5,307.5 Z"/></g>
<g><path style="opacity:1" fill="#f9f9f9" d="M 1524.5,309.5 C 1540.92,310.685 1545.75,318.685 1539,333.5C 1532.84,338.11 1526.34,338.61 1519.5,335C 1511.77,324.576 1513.44,316.076 1524.5,309.5 Z"/></g>
<g><path style="opacity:1" fill="#111111" d="M 434.5,313.5 C 452.679,315.113 471.012,316.113 489.5,316.5C 471.843,317.333 454.176,317.833 436.5,318C 507.167,319 507.167,320 436.5,321C 454.574,321.161 471.908,321.661 488.5,322.5C 473.833,322.5 459.167,322.5 444.5,322.5C 443.838,370.402 443.171,417.736 442.5,464.5C 442.833,417.162 442.5,369.829 441.5,322.5C 440.5,370.162 440.167,417.829 440.5,465.5C 439.833,465.5 439.5,465.167 439.5,464.5C 439.5,417.167 439.5,369.833 439.5,322.5C 437.801,322.66 436.134,322.494 434.5,322C 430.533,319.034 430.533,316.201 434.5,313.5 Z"/></g>
<g><path style="opacity:1" fill="#010101" d="M 1482.5,313.5 C 1483.5,313.833 1484.17,314.5 1484.5,315.5C 1484.63,316.239 1484.46,316.906 1484,317.5C 1483.35,316.304 1482.85,316.304 1482.5,317.5C 1483.61,318.265 1484.28,319.265 1484.5,320.5C 1482.56,322.163 1480.23,322.829 1477.5,322.5C 1477.5,369.833 1477.5,417.167 1477.5,464.5C 1476.83,417.901 1476.16,370.567 1475.5,322.5C 1474.67,370.163 1474.17,417.83 1474,465.5C 1473.83,417.665 1473.33,369.998 1472.5,322.5C 1457.83,322.5 1443.17,322.5 1428.5,322.5C 1445.1,321.82 1462.43,321.154 1480.5,320.5C 1462.84,319.667 1445.18,319.167 1427.5,319C 1498.17,318 1498.17,317 1427.5,316C 1446,316.111 1464.33,315.278 1482.5,313.5 Z"/></g>
<g><path style="opacity:1" fill="#757575" d="M 1484.5,315.5 C 1485.83,317.167 1485.83,318.833 1484.5,320.5C 1484.28,319.265 1483.61,318.265 1482.5,317.5C 1482.85,316.304 1483.35,316.304 1484,317.5C 1484.46,316.906 1484.63,316.239 1484.5,315.5 Z"/></g>
<g><path style="opacity:1" fill="#161616" d="M 384.5,308.5 C 399.304,307.141 406.471,313.808 406,328.5C 401.345,338.411 393.845,341.578 383.5,338C 373.46,331.064 371.96,322.564 379,312.5C 381.015,311.303 382.849,309.97 384.5,308.5 Z"/></g>
<g><path style="opacity:1" fill="#f7f7f7" d="M 384.5,310.5 C 398.606,308.443 405.106,314.443 404,328.5C 399.936,336.61 393.436,339.443 384.5,337C 377.46,332.745 374.96,326.578 377,318.5C 379.028,315.308 381.528,312.641 384.5,310.5 Z"/></g>
<g><path style="opacity:1" fill="#939393" d="M 442.5,464.5 C 441.833,464.833 441.167,465.167 440.5,465.5C 440.167,417.829 440.5,370.162 441.5,322.5C 442.5,369.829 442.833,417.162 442.5,464.5 Z"/></g>
<g><path style="opacity:1" fill="#fefffe" d="M 444.5,322.5 C 459.167,322.5 473.833,322.5 488.5,322.5C 488.5,369.833 488.5,417.167 488.5,464.5C 473.833,464.5 459.167,464.5 444.5,464.5C 444.5,417.167 444.5,369.833 444.5,322.5 Z"/></g>
<g><path style="opacity:1" fill="#fefffe" d="M 1428.5,322.5 C 1443.17,322.5 1457.83,322.5 1472.5,322.5C 1472.5,369.833 1472.5,417.167 1472.5,464.5C 1457.83,464.5 1443.17,464.5 1428.5,464.5C 1428.5,417.167 1428.5,369.833 1428.5,322.5 Z"/></g>
<g><path style="opacity:1" fill="#161616" d="M 385.5,344.5 C 395.094,342.876 401.594,346.543 405,355.5C 405.667,369.833 405.667,384.167 405,398.5C 398.855,410.106 390.355,412.273 379.5,405C 377.898,403.065 376.731,400.899 376,398.5C 375.333,384.167 375.333,369.833 376,355.5C 377.563,350.438 380.729,346.772 385.5,344.5 Z"/></g>
<g><path style="opacity:1" fill="#fcfcfc" d="M 385.5,346.5 C 393.924,344.628 399.757,347.628 403,355.5C 403.667,369.833 403.667,384.167 403,398.5C 398.781,406.687 392.281,409.187 383.5,406C 380.865,404.039 379.031,401.539 378,398.5C 377.333,383.833 377.333,369.167 378,354.5C 379.52,350.842 382.02,348.176 385.5,346.5 Z"/></g>
<g><path style="opacity:1" fill="#bebebe" d="M 1493.5,372.5 C 1492.5,455.096 1492.17,537.763 1492.5,620.5C 1491.83,579.335 1491.5,538.001 1491.5,496.5C 1491.5,454.828 1492.17,413.495 1493.5,372.5 Z"/></g>
<g><path style="opacity:1" fill="#bebebe" d="M 423.5,426.5 C 424.833,464.994 425.5,503.828 425.5,543C 425.5,582.001 425.167,620.835 424.5,659.5C 424.83,581.763 424.497,504.096 423.5,426.5 Z"/></g>
<g><path style="opacity:1" fill="#939393" d="M 440.5,474.5 C 441.833,497.991 442.5,521.824 442.5,546C 442.167,569.833 441.833,593.667 441.5,617.5C 440.5,569.838 440.167,522.171 440.5,474.5 Z"/></g>
<g><path style="opacity:1" fill="#fefffe" d="M 444.5,474.5 C 459.167,474.5 473.833,474.5 488.5,474.5C 488.5,521.833 488.5,569.167 488.5,616.5C 473.833,616.5 459.167,616.5 444.5,616.5C 444.5,569.167 444.5,521.833 444.5,474.5 Z"/></g>
<g><path style="opacity:1" fill="#fefffe" d="M 1428.5,474.5 C 1443.17,474.5 1457.83,474.5 1472.5,474.5C 1472.5,521.833 1472.5,569.167 1472.5,616.5C 1457.83,616.5 1443.17,616.5 1428.5,616.5C 1428.5,569.167 1428.5,521.833 1428.5,474.5 Z"/></g>
<g><path style="opacity:1" fill="#939393" d="M 1474.5,474.5 C 1475.83,497.991 1476.5,521.824 1476.5,546C 1476.17,569.833 1475.83,593.667 1475.5,617.5C 1474.5,569.838 1474.17,522.171 1474.5,474.5 Z"/></g>
<g><path style="opacity:1" fill="#a2a2a2" d="M 444.5,474.5 C 444.5,521.833 444.5,569.167 444.5,616.5C 459.167,616.5 473.833,616.5 488.5,616.5C 488.5,616.833 488.5,617.167 488.5,617.5C 473.5,617.5 458.5,617.5 443.5,617.5C 443.168,569.664 443.501,521.997 444.5,474.5 Z"/></g>
<g><path style="opacity:1" fill="#a2a2a2" d="M 1472.5,474.5 C 1473.5,521.997 1473.83,569.664 1473.5,617.5C 1458.5,617.5 1443.5,617.5 1428.5,617.5C 1428.5,617.167 1428.5,616.833 1428.5,616.5C 1443.17,616.5 1457.83,616.5 1472.5,616.5C 1472.5,569.167 1472.5,521.833 1472.5,474.5 Z"/></g>
<g><path style="opacity:1" fill="#bcbcbc" d="M 1497.5,623.5 C 1495.83,623.5 1494.17,623.5 1492.5,623.5C 1492.17,670.003 1492.5,716.336 1493.5,762.5C 1493.44,763.043 1493.11,763.376 1492.5,763.5C 1491.5,716.505 1491.17,669.505 1491.5,622.5C 1493.74,622.205 1495.74,622.539 1497.5,623.5 Z"/></g>
<g><path style="opacity:1" fill="#fdfdfd" d="M 1497.5,623.5 C 1517.2,625.337 1536.86,627.503 1556.5,630C 1560.04,631.907 1562.54,634.74 1564,638.5C 1564.67,674.5 1564.67,710.5 1564,746.5C 1562.53,751.307 1559.36,754.474 1554.5,756C 1534.2,758.497 1513.86,760.664 1493.5,762.5C 1492.5,716.336 1492.17,670.003 1492.5,623.5C 1494.17,623.5 1495.83,623.5 1497.5,623.5 Z"/></g>
<g><path style="opacity:1" fill="#a7a7a7" d="M 488.5,626.5 C 488.5,626.833 488.5,627.167 488.5,627.5C 473.833,627.5 459.167,627.5 444.5,627.5C 444.5,672.5 444.5,717.5 444.5,762.5C 459.167,762.5 473.833,762.5 488.5,762.5C 488.5,762.833 488.5,763.167 488.5,763.5C 473.5,763.5 458.5,763.5 443.5,763.5C 443.5,717.833 443.5,672.167 443.5,626.5C 458.5,626.5 473.5,626.5 488.5,626.5 Z"/></g>
<g><path style="opacity:1" fill="#939393" d="M 1474.5,626.5 C 1475.83,648.99 1476.5,671.823 1476.5,695C 1476.17,717.833 1475.83,740.667 1475.5,763.5C 1474.5,717.838 1474.17,672.172 1474.5,626.5 Z"/></g>
<g><path style="opacity:1" fill="#939393" d="M 440.5,626.5 C 441.833,648.99 442.5,671.823 442.5,695C 442.167,717.833 441.833,740.667 441.5,763.5C 440.5,717.838 440.167,672.172 440.5,626.5 Z"/></g>
<g><path style="opacity:1" fill="#fefffe" d="M 488.5,627.5 C 488.5,672.5 488.5,717.5 488.5,762.5C 473.833,762.5 459.167,762.5 444.5,762.5C 444.5,717.5 444.5,672.5 444.5,627.5C 459.167,627.5 473.833,627.5 488.5,627.5 Z"/></g>
<g><path style="opacity:1" fill="#fefffe" d="M 1428.5,627.5 C 1443.17,627.5 1457.83,627.5 1472.5,627.5C 1472.5,672.5 1472.5,717.5 1472.5,762.5C 1457.83,762.5 1443.17,762.5 1428.5,762.5C 1428.5,717.5 1428.5,672.5 1428.5,627.5 Z"/></g>
<g><path style="opacity:1" fill="#161616" d="M 1524.5,650.5 C 1535.36,649.516 1539.53,654.183 1537,664.5C 1530.83,671.412 1525.17,671.079 1520,663.5C 1518.38,657.923 1519.88,653.589 1524.5,650.5 Z"/></g>
<g><path style="opacity:1" fill="#f3f3f3" d="M 1527.5,651.5 C 1535.66,652.476 1538.16,656.809 1535,664.5C 1531.26,668.012 1527.26,668.345 1523,665.5C 1519.85,659.055 1521.35,654.388 1527.5,651.5 Z"/></g>
<g><path style="opacity:1" fill="#fbfbfb" d="M 420.5,661.5 C 422.167,661.5 423.833,661.5 425.5,661.5C 425.5,692.5 425.5,723.5 425.5,754.5C 403.791,751.262 382.124,747.762 360.5,744C 356,742.167 352.833,739 351,734.5C 350.333,716.833 350.333,699.167 351,681.5C 352.927,676.572 356.427,673.406 361.5,672C 381.341,668.695 401.007,665.195 420.5,661.5 Z"/></g>
<g><path style="opacity:1" fill="#151515" d="M 384.5,692.5 C 397.866,692.058 404.366,698.391 404,711.5C 399.165,724.335 390.665,727.502 378.5,721C 371.631,714.211 370.798,706.711 376,698.5C 378.671,696.098 381.505,694.098 384.5,692.5 Z"/></g>
<g><path style="opacity:1" fill="#f7f7f7" d="M 383.5,694.5 C 397.286,693.452 403.453,699.786 402,713.5C 396.088,723.128 388.254,724.961 378.5,719C 371.879,709.029 373.546,700.863 383.5,694.5 Z"/></g>
<g><path style="opacity:1" fill="#181818" d="M 1525.5,691.5 C 1538.85,691.678 1545.02,698.345 1544,711.5C 1540.27,722.197 1532.93,725.864 1522,722.5C 1510.02,713.52 1509.52,704.02 1520.5,694C 1522.31,693.243 1523.98,692.41 1525.5,691.5 Z"/></g>
<g><path style="opacity:1" fill="#f7f7f7" d="M 1525.5,693.5 C 1539.79,694.301 1544.96,701.634 1541,715.5C 1535.58,721.529 1529.08,723.029 1521.5,720C 1514.2,714.447 1512.7,707.614 1517,699.5C 1519.32,696.605 1522.16,694.605 1525.5,693.5 Z"/></g>
<g><path style="opacity:1" fill="#bebfbe" d="M 441.5,765.5 C 440.844,788.525 441.51,811.191 443.5,833.5C 442.791,834.404 441.791,834.737 440.5,834.5C 440.169,811.327 440.502,788.327 441.5,765.5 Z"/></g>
<g><path style="opacity:1" fill="#fefefe" d="M 441.5,765.5 C 444.167,765.5 446.833,765.5 449.5,765.5C 449.833,787.843 449.5,810.177 448.5,832.5C 446.929,833.309 445.262,833.643 443.5,833.5C 441.51,811.191 440.844,788.525 441.5,765.5 Z"/></g>
<g><path style="opacity:1" fill="#fefefe" d="M 1475.5,765.5 C 1475.5,788.167 1475.5,810.833 1475.5,833.5C 1474.5,833.5 1473.5,833.5 1472.5,833.5C 1470.86,833.714 1469.36,833.38 1468,832.5C 1467.5,810.169 1467.33,787.836 1467.5,765.5C 1470.17,765.5 1472.83,765.5 1475.5,765.5 Z"/></g>
<g><path style="opacity:1" fill="#bdbdbd" d="M 1475.5,765.5 C 1476.5,788.327 1476.83,811.327 1476.5,834.5C 1474.9,834.768 1473.57,834.434 1472.5,833.5C 1473.5,833.5 1474.5,833.5 1475.5,833.5C 1475.5,810.833 1475.5,788.167 1475.5,765.5 Z"/></g>
<g><path style="opacity:1" fill="#bcbcbc" d="M 1496.5,764.5 C 1495.43,765.434 1494.1,765.768 1492.5,765.5C 1492.83,793.338 1492.5,821.005 1491.5,848.5C 1491.5,820.5 1491.5,792.5 1491.5,764.5C 1493.17,764.5 1494.83,764.5 1496.5,764.5 Z"/></g>
<g><path style="opacity:1" fill="#1a1a1a" d="M 691.5,786.5 C 700.086,786.588 703.92,790.921 703,799.5C 695.526,808.088 689.36,807.255 684.5,797C 685.249,795.266 685.749,793.433 686,791.5C 687.812,789.7 689.645,788.033 691.5,786.5 Z"/></g>
<g><path style="opacity:1" fill="#212121" d="M 1220.5,786.5 C 1229.45,786.963 1232.95,791.63 1231,800.5C 1222.43,808.352 1216.59,806.686 1213.5,795.5C 1214.19,791.089 1216.52,788.089 1220.5,786.5 Z"/></g>
<g><path style="opacity:1" fill="#eeeeee" d="M 691.5,788.5 C 697.247,787.866 700.58,790.366 701.5,796C 700.947,800.719 698.28,803.219 693.5,803.5C 688.819,802.649 686.486,799.815 686.5,795C 687.283,792.062 688.95,789.896 691.5,788.5 Z"/></g>
<g><path style="opacity:1" fill="#f4f4f4" d="M 1220.5,788.5 C 1229.32,789.124 1231.65,793.457 1227.5,801.5C 1218.23,804.57 1214.57,801.237 1216.5,791.5C 1217.9,790.479 1219.23,789.479 1220.5,788.5 Z"/></g>
<g><path style="opacity:1" fill="#525252" d="M 528.5,793.5 C 530.265,792.539 532.265,792.205 534.5,792.5C 534.5,795.833 534.5,799.167 534.5,802.5C 532.265,802.795 530.265,802.461 528.5,801.5C 530.167,801.5 531.833,801.5 533.5,801.5C 533.5,798.833 533.5,796.167 533.5,793.5C 531.833,793.5 530.167,793.5 528.5,793.5 Z"/></g>
<g><path style="opacity:1" fill="#525252" d="M 571.5,793.5 C 573.265,792.539 575.265,792.205 577.5,792.5C 577.5,795.833 577.5,799.167 577.5,802.5C 575.265,802.795 573.265,802.461 571.5,801.5C 573.167,801.5 574.833,801.5 576.5,801.5C 576.5,798.833 576.5,796.167 576.5,793.5C 574.833,793.5 573.167,793.5 571.5,793.5 Z"/></g>
<g><path style="opacity:1" fill="#525252" d="M 614.5,793.5 C 616.265,792.539 618.265,792.205 620.5,792.5C 620.5,795.833 620.5,799.167 620.5,802.5C 618.265,802.795 616.265,802.461 614.5,801.5C 616.167,801.5 617.833,801.5 619.5,801.5C 619.5,798.833 619.5,796.167 619.5,793.5C 617.833,793.5 616.167,793.5 614.5,793.5 Z"/></g>
<g><path style="opacity:1" fill="#545454" d="M 657.5,793.5 C 659.265,792.539 661.265,792.205 663.5,792.5C 663.5,795.833 663.5,799.167 663.5,802.5C 661.265,802.795 659.265,802.461 657.5,801.5C 659.167,801.5 660.833,801.5 662.5,801.5C 662.5,798.833 662.5,796.167 662.5,793.5C 660.833,793.5 659.167,793.5 657.5,793.5 Z"/></g>
<g><path style="opacity:1" fill="#545454" d="M 743.5,793.5 C 745.265,792.539 747.265,792.205 749.5,792.5C 749.5,795.833 749.5,799.167 749.5,802.5C 747.265,802.795 745.265,802.461 743.5,801.5C 745.167,801.5 746.833,801.5 748.5,801.5C 748.5,798.833 748.5,796.167 748.5,793.5C 746.833,793.5 745.167,793.5 743.5,793.5 Z"/></g>
<g><path style="opacity:1" fill="#545454" d="M 786.5,793.5 C 788.265,792.539 790.265,792.205 792.5,792.5C 792.5,795.833 792.5,799.167 792.5,802.5C 790.265,802.795 788.265,802.461 786.5,801.5C 788.167,801.5 789.833,801.5 791.5,801.5C 791.5,798.833 791.5,796.167 791.5,793.5C 789.833,793.5 788.167,793.5 786.5,793.5 Z"/></g>
<g><path style="opacity:1" fill="#fefffe" d="M 528.5,793.5 C 530.167,793.5 531.833,793.5 533.5,793.5C 533.5,796.167 533.5,798.833 533.5,801.5C 531.833,801.5 530.167,801.5 528.5,801.5C 528.5,798.833 528.5,796.167 528.5,793.5 Z"/></g>
<g><path style="opacity:1" fill="#fefffe" d="M 571.5,793.5 C 573.167,793.5 574.833,793.5 576.5,793.5C 576.5,796.167 576.5,798.833 576.5,801.5C 574.833,801.5 573.167,801.5 571.5,801.5C 571.5,798.833 571.5,796.167 571.5,793.5 Z"/></g>
<g><path style="opacity:1" fill="#fefffe" d="M 614.5,793.5 C 616.167,793.5 617.833,793.5 619.5,793.5C 619.5,796.167 619.5,798.833 619.5,801.5C 617.833,801.5 616.167,801.5 614.5,801.5C 614.5,798.833 614.5,796.167 614.5,793.5 Z"/></g>
<g><path style="opacity:1" fill="#fefffe" d="M 657.5,793.5 C 659.167,793.5 660.833,793.5 662.5,793.5C 662.5,796.167 662.5,798.833 662.5,801.5C 660.833,801.5 659.167,801.5 657.5,801.5C 657.5,798.833 657.5,796.167 657.5,793.5 Z"/></g>
<g><path style="opacity:1" fill="#fefffe" d="M 743.5,793.5 C 745.167,793.5 746.833,793.5 748.5,793.5C 748.5,796.167 748.5,798.833 748.5,801.5C 746.833,801.5 745.167,801.5 743.5,801.5C 743.5,798.833 743.5,796.167 743.5,793.5 Z"/></g>
<g><path style="opacity:1" fill="#fefffe" d="M 786.5,793.5 C 788.167,793.5 789.833,793.5 791.5,793.5C 791.5,796.167 791.5,798.833 791.5,801.5C 789.833,801.5 788.167,801.5 786.5,801.5C 786.5,798.833 786.5,796.167 786.5,793.5 Z"/></g>
<g><path style="opacity:1" fill="#e8e8e8" d="M 823.5,792.5 C 824.833,792.5 826.167,792.5 827.5,792.5C 827.274,795.249 827.607,797.916 828.5,800.5C 826.955,801.452 825.288,801.785 823.5,801.5C 823.5,798.5 823.5,795.5 823.5,792.5 Z"/></g>
<g><path style="opacity:1" fill="#fefffe" d="M 866.5,800.5 C 866.5,799.833 866.5,799.167 866.5,798.5C 867.451,797.081 867.784,795.415 867.5,793.5C 868.5,793.5 869.5,793.5 870.5,793.5C 870.5,795.833 870.5,798.167 870.5,800.5C 869.167,800.5 867.833,800.5 866.5,800.5 Z"/></g>
<g><path style="opacity:1" fill="#d7d7d7" d="M 909.5,792.5 C 911.167,792.5 912.833,792.5 914.5,792.5C 914.5,795.5 914.5,798.5 914.5,801.5C 912.833,801.5 911.167,801.5 909.5,801.5C 909.5,798.5 909.5,795.5 909.5,792.5 Z"/></g>
<g><path style="opacity:1" fill="#dadada" d="M 995.5,792.5 C 997.167,792.5 998.833,792.5 1000.5,792.5C 1000.5,795.5 1000.5,798.5 1000.5,801.5C 998.833,801.5 997.167,801.5 995.5,801.5C 995.5,798.5 995.5,795.5 995.5,792.5 Z"/></g>
<g><path style="opacity:1" fill="#eaeaea" d="M 1039.5,792.5 C 1040.83,792.5 1042.17,792.5 1043.5,792.5C 1043.5,795.5 1043.5,798.5 1043.5,801.5C 1042.17,801.5 1040.83,801.5 1039.5,801.5C 1039.5,798.5 1039.5,795.5 1039.5,792.5 Z"/></g>
<g><path style="opacity:1" fill="#ebebeb" d="M 1082.5,792.5 C 1083.83,792.5 1085.17,792.5 1086.5,792.5C 1086.5,795.5 1086.5,798.5 1086.5,801.5C 1085.17,801.5 1083.83,801.5 1082.5,801.5C 1082.5,798.5 1082.5,795.5 1082.5,792.5 Z"/></g>
<g><path style="opacity:1" fill="#efefef" d="M 1125.5,792.5 C 1126.83,792.5 1128.17,792.5 1129.5,792.5C 1129.5,795.5 1129.5,798.5 1129.5,801.5C 1128.17,801.5 1126.83,801.5 1125.5,801.5C 1125.5,798.5 1125.5,795.5 1125.5,792.5 Z"/></g>
<g><path style="opacity:1" fill="#efefef" d="M 1168.5,792.5 C 1169.83,792.5 1171.17,792.5 1172.5,792.5C 1172.22,795.448 1172.56,798.281 1173.5,801C 1171.87,801.494 1170.2,801.66 1168.5,801.5C 1168.5,798.5 1168.5,795.5 1168.5,792.5 Z"/></g>
<g><path style="opacity:1" fill="#eaeaea" d="M 1254.5,792.5 C 1255.83,792.5 1257.17,792.5 1258.5,792.5C 1258.27,795.249 1258.61,797.916 1259.5,800.5C 1257.95,801.452 1256.29,801.785 1254.5,801.5C 1254.5,798.5 1254.5,795.5 1254.5,792.5 Z"/></g>
<g><path style="opacity:1" fill="#e1e1e1" d="M 1297.5,792.5 C 1298.83,792.5 1300.17,792.5 1301.5,792.5C 1301.51,795.545 1301.84,798.545 1302.5,801.5C 1300.4,801.799 1298.4,801.466 1296.5,800.5C 1297.39,797.916 1297.73,795.249 1297.5,792.5 Z"/></g>
<g><path style="opacity:1" fill="#e8e8e8" d="M 1340.5,792.5 C 1341.83,792.5 1343.17,792.5 1344.5,792.5C 1344.27,795.249 1344.61,797.916 1345.5,800.5C 1343.95,801.452 1342.29,801.785 1340.5,801.5C 1340.5,798.5 1340.5,795.5 1340.5,792.5 Z"/></g>
<g><path style="opacity:1" fill="#fefffe" d="M 1383.5,800.5 C 1383.5,799.833 1383.5,799.167 1383.5,798.5C 1384.45,797.081 1384.78,795.415 1384.5,793.5C 1385.5,793.5 1386.5,793.5 1387.5,793.5C 1387.5,795.833 1387.5,798.167 1387.5,800.5C 1386.17,800.5 1384.83,800.5 1383.5,800.5 Z"/></g>
<g><path style="opacity:1" fill="#a8a8a8" d="M 1383.5,800.5 C 1384.83,800.5 1386.17,800.5 1387.5,800.5C 1387.5,798.167 1387.5,795.833 1387.5,793.5C 1386.5,793.5 1385.5,793.5 1384.5,793.5C 1384.78,795.415 1384.45,797.081 1383.5,798.5C 1383.5,796.5 1383.5,794.5 1383.5,792.5C 1385.17,792.5 1386.83,792.5 1388.5,792.5C 1388.5,795.5 1388.5,798.5 1388.5,801.5C 1386.59,801.784 1384.92,801.451 1383.5,800.5 Z"/></g>
<g><path style="opacity:1" fill="#a3a3a3" d="M 953.5,792.5 C 953.5,795.167 953.5,797.833 953.5,800.5C 954.5,800.5 955.5,800.5 956.5,800.5C 956.5,797.833 956.5,795.167 956.5,792.5C 957.477,795.287 957.81,798.287 957.5,801.5C 955.833,801.5 954.167,801.5 952.5,801.5C 952.19,798.287 952.523,795.287 953.5,792.5 Z"/></g>
<g><path style="opacity:1" fill="#f7f7f7" d="M 953.5,792.5 C 954.5,792.5 955.5,792.5 956.5,792.5C 956.5,795.167 956.5,797.833 956.5,800.5C 955.5,800.5 954.5,800.5 953.5,800.5C 953.5,797.833 953.5,795.167 953.5,792.5 Z"/></g>
<g><path style="opacity:1" fill="#a7a7a7" d="M 866.5,800.5 C 867.833,800.5 869.167,800.5 870.5,800.5C 870.5,798.167 870.5,795.833 870.5,793.5C 869.5,793.5 868.5,793.5 867.5,793.5C 867.784,795.415 867.451,797.081 866.5,798.5C 866.5,796.5 866.5,794.5 866.5,792.5C 868.167,792.5 869.833,792.5 871.5,792.5C 871.5,795.5 871.5,798.5 871.5,801.5C 869.585,801.784 867.919,801.451 866.5,800.5 Z"/></g>
<g><path style="opacity:1" fill="#7e7e7e" d="M 1236.5,806.5 C 1290.83,807.167 1345.17,807.833 1399.5,808.5C 1344.5,808.667 1289.5,808.5 1234.5,808C 1235.04,807.283 1235.71,806.783 1236.5,806.5 Z"/></g>
<g><path style="opacity:1" fill="#7e7e7e" d="M 708.5,805.5 C 875.163,807.499 1042.16,808.165 1209.5,807.5C 1042.24,808.666 874.236,808.832 705.5,808C 706.691,807.302 707.691,806.469 708.5,805.5 Z"/></g>
<g><path style="opacity:1" fill="#7e7e7e" d="M 1394.5,811.5 C 1103.17,810.167 811.833,810.167 520.5,811.5C 520.167,811.5 519.833,811.5 519.5,811.5C 665.498,810.167 811.832,809.5 958.5,809.5C 1104.83,809.667 1251.17,809.833 1397.5,810C 1396.47,810.513 1395.47,811.013 1394.5,811.5 Z"/></g>
<g><path style="opacity:1" fill="#f4f4f4" d="M 520.5,811.5 C 811.833,810.167 1103.17,810.167 1394.5,811.5C 1391.49,812.338 1388.82,813.838 1386.5,816C 1099.5,816.5 812.5,816.667 525.5,816.5C 524.167,814.5 522.5,812.833 520.5,811.5 Z"/></g>
<g><path style="opacity:1" fill="#3e3e3e" d="M 519.5,811.5 C 519.833,811.5 520.167,811.5 520.5,811.5C 522.5,812.833 524.167,814.5 525.5,816.5C 524.833,816.5 524.5,816.833 524.5,817.5C 522.537,816.04 520.704,814.373 519,812.5C 518.5,819.158 518.334,825.825 518.5,832.5C 517.835,829.183 517.501,825.683 517.5,822C 517.512,818.098 518.179,814.598 519.5,811.5 Z"/></g>
<g><path style="opacity:1" fill="#424242" d="M 1398.5,832.5 C 1398.82,826.31 1398.49,820.31 1397.5,814.5C 1397.99,813.527 1398.49,812.527 1399,811.5C 1399.82,818.679 1399.65,825.679 1398.5,832.5 Z"/></g>
<g><path style="opacity:1" fill="#fbfbfb" d="M 524.5,817.5 C 524.5,822.5 524.5,827.5 524.5,832.5C 522.5,832.5 520.5,832.5 518.5,832.5C 518.334,825.825 518.5,819.158 519,812.5C 520.704,814.373 522.537,816.04 524.5,817.5 Z"/></g>
<g><path style="opacity:1" fill="#dfdfdf" d="M 1393.5,820.5 C 1387.94,816.872 1388.6,814.205 1395.5,812.5C 1395.83,812.833 1396.17,813.167 1396.5,813.5C 1395.21,815.739 1394.21,818.072 1393.5,820.5 Z"/></g>
<g><path style="opacity:1" fill="#f5f5f5" d="M 1397.5,814.5 C 1398.49,820.31 1398.82,826.31 1398.5,832.5C 1396.5,832.5 1394.5,832.5 1392.5,832.5C 1392.31,828.434 1392.64,824.434 1393.5,820.5C 1395.74,819.147 1397.07,817.147 1397.5,814.5 Z"/></g>
<g><path style="opacity:1" fill="#fefefe" d="M 525.5,817.5 C 813.167,817.333 1100.83,817.5 1388.5,818C 1389.7,818.903 1390.53,820.069 1391,821.5C 1391.5,825.821 1391.67,830.154 1391.5,834.5C 1102.83,834.5 814.167,834.5 525.5,834.5C 525.5,828.833 525.5,823.167 525.5,817.5 Z"/></g>
<g><path style="opacity:1" fill="#bebebe" d="M 516.5,809.5 C 516.5,817.167 516.5,824.833 516.5,832.5C 494.66,832.831 472.994,832.497 451.5,831.5C 472.833,831.5 494.167,831.5 515.5,831.5C 515.175,823.981 515.508,816.648 516.5,809.5 Z"/></g>
<g><path style="opacity:1" fill="#bebebe" d="M 1400.5,808.5 C 1401.49,815.982 1401.83,823.648 1401.5,831.5C 1422.83,831.5 1444.17,831.5 1465.5,831.5C 1444.01,832.497 1422.34,832.831 1400.5,832.5C 1400.5,824.5 1400.5,816.5 1400.5,808.5 Z"/></g>
<g><path style="opacity:1" fill="#fcfcfc" d="M 516.5,842.5 C 494.167,842.5 471.833,842.5 449.5,842.5C 449.833,839.833 450.167,837.167 450.5,834.5C 472.5,834.5 494.5,834.5 516.5,834.5C 516.5,837.167 516.5,839.833 516.5,842.5 Z"/></g>
<g><path style="opacity:1" fill="#f8f8f8" d="M 524.5,837.5 C 523.326,838.514 522.66,839.847 522.5,841.5C 521.167,841.833 519.833,842.167 518.5,842.5C 518.5,839.833 518.5,837.167 518.5,834.5C 520.5,834.5 522.5,834.5 524.5,834.5C 524.5,835.5 524.5,836.5 524.5,837.5 Z"/></g>
<g><path style="opacity:1" fill="#f8f8f8" d="M 1398.5,842.5 C 1395.88,841.637 1393.88,839.97 1392.5,837.5C 1392.5,836.5 1392.5,835.5 1392.5,834.5C 1394.5,834.5 1396.5,834.5 1398.5,834.5C 1398.5,837.167 1398.5,839.833 1398.5,842.5 Z"/></g>
<g><path style="opacity:1" fill="#fdfdfd" d="M 1467.5,842.5 C 1445.17,842.5 1422.83,842.5 1400.5,842.5C 1400.5,839.833 1400.5,837.167 1400.5,834.5C 1422.17,834.333 1443.84,834.5 1465.5,835C 1466.55,837.382 1467.22,839.882 1467.5,842.5 Z"/></g>
<g><path style="opacity:1" fill="#f1f1f1" d="M 447.5,842.5 C 443.795,842.129 441.795,840.129 441.5,836.5C 443.746,836.064 445.913,835.397 448,834.5C 448.602,837.221 448.435,839.887 447.5,842.5 Z"/></g>
<g><path style="opacity:1" fill="#eeeeee" d="M 1475.5,836.5 C 1475.37,838.216 1475.04,839.883 1474.5,841.5C 1472.88,842.038 1471.22,842.371 1469.5,842.5C 1469.01,840.194 1468.67,837.861 1468.5,835.5C 1470.95,835.298 1473.28,835.631 1475.5,836.5 Z"/></g>
<g><path style="opacity:1" fill="#5d5d5d" d="M 1475.5,836.5 C 1476.17,836.5 1476.83,836.5 1477.5,836.5C 1477.73,838.933 1476.73,840.599 1474.5,841.5C 1475.04,839.883 1475.37,838.216 1475.5,836.5 Z"/></g>
<g><path style="opacity:1" fill="#f5f5f5" d="M 1391.5,837.5 C 1391.73,839.062 1392.4,840.395 1393.5,841.5C 1103.67,842.666 813.667,842.833 523.5,842C 524.582,840.67 525.249,839.17 525.5,837.5C 814.167,836.167 1102.83,836.167 1391.5,837.5 Z"/></g>
<g><path style="opacity:1" fill="#464646" d="M 439.5,836.5 C 440.167,836.5 440.833,836.5 441.5,836.5C 441.795,840.129 443.795,842.129 447.5,842.5C 447.938,843.506 448.604,843.506 449.5,842.5C 471.833,842.5 494.167,842.5 516.5,842.5C 517.167,843.833 517.833,843.833 518.5,842.5C 519.833,842.167 521.167,841.833 522.5,841.5C 667.498,842.833 812.832,843.5 958.5,843.5C 1103.83,843.167 1249.17,842.833 1394.5,842.5C 1394.38,841.893 1394.04,841.56 1393.5,841.5C 1392.4,840.395 1391.73,839.062 1391.5,837.5C 1391.83,837.5 1392.17,837.5 1392.5,837.5C 1393.88,839.97 1395.88,841.637 1398.5,842.5C 1399.17,843.833 1399.83,843.833 1400.5,842.5C 1422.83,842.5 1445.17,842.5 1467.5,842.5C 1468.17,843.833 1468.83,843.833 1469.5,842.5C 1471.22,842.371 1472.88,842.038 1474.5,841.5C 1473.65,842.966 1472.32,843.8 1470.5,844C 1129.17,844.667 787.833,844.667 446.5,844C 442.609,842.943 440.276,840.443 439.5,836.5 Z"/></g>
<g><path style="opacity:1" fill="#7e7e7e" d="M 524.5,837.5 C 524.833,837.5 525.167,837.5 525.5,837.5C 525.249,839.17 524.582,840.67 523.5,842C 813.667,842.833 1103.67,842.666 1393.5,841.5C 1394.04,841.56 1394.38,841.893 1394.5,842.5C 1249.17,842.833 1103.83,843.167 958.5,843.5C 812.832,843.5 667.498,842.833 522.5,841.5C 522.66,839.847 523.326,838.514 524.5,837.5 Z"/></g>
<g><path style="opacity:1" fill="#bfbfbf" d="M 431.5,854.5 C 430.798,855.116 429.798,855.116 428.5,854.5C 428.123,852.742 427.456,851.075 426.5,849.5C 426.833,849.167 427.167,848.833 427.5,848.5C 428.358,850.901 429.691,852.901 431.5,854.5 Z"/></g>
<g><path style="opacity:1" fill="#c8c8c8" d="M 1490.5,850.5 C 1489.41,852.761 1487.74,854.594 1485.5,856C 1484.25,856.74 1483.25,856.573 1482.5,855.5C 1485.8,854.203 1488.13,851.87 1489.5,848.5C 1490.3,848.957 1490.63,849.624 1490.5,850.5 Z"/></g>
<g><path style="opacity:1" fill="#535353" d="M 428.5,854.5 C 429.798,855.116 430.798,855.116 431.5,854.5C 434.651,854.614 435.651,855.947 434.5,858.5C 431.733,858.13 429.733,856.796 428.5,854.5 Z"/></g>
<g><path style="opacity:1" fill="#939393" d="M 437.5,855.5 C 785.167,855.167 1132.83,855.5 1480.5,856.5C 1306.67,856.833 1132.83,857.167 959,857.5C 784.832,857.5 610.999,856.833 437.5,855.5 Z"/></g>
<g><path style="opacity:1" fill="#484848" d="M 1490.5,850.5 C 1490.83,850.5 1491.17,850.5 1491.5,850.5C 1489.98,854.771 1486.98,857.438 1482.5,858.5C 1481.38,857.348 1481.38,856.348 1482.5,855.5C 1483.25,856.573 1484.25,856.74 1485.5,856C 1487.74,854.594 1489.41,852.761 1490.5,850.5 Z"/></g>
</svg>
